<svg viewBox="0 0 24 24" xmlns="http://www.w3.org/2000/svg">
    <path d="m479.098 173.216c-9.248-97.152-96.544-173.216-198.656-173.216h-232.448c-8.832 0-16 7.168-16 16v480c0 8.832 7.168 16 16 16h112c17.632 0 32-14.336 32-32v-96h96c53.984 0 105.792-22.944 142.144-62.848 36.8-40.544 54.176-93.088 48.96-147.936zm-72.672 126.368c-30.272 33.312-73.44 52.416-118.432 52.416h-112c-8.832 0-16 7.168-16 16v112h-96v-448h216.448c85.792 0 159.072 63.36 166.752 144.224 4.384 45.792-10.08 89.6-40.768 123.36z"
            transform="matrix(.04017748 0 0 .0390625 1.714563 2)" />
</svg>