<?xml version="1.0" encoding="UTF-8" standalone="no"?>
<!-- Generator: Adobe Illustrator 14.0.0, SVG Export Plug-In . SVG Version: 6.00 Build 43363)  -->

<svg
   version="1.1"
   id="Layer_1"
   x="0px"
   y="0px"
   width="24"
   height="24"
   viewBox="0 0 24.000001 24"
   enable-background="new 0 0 612 792"
   xml:space="preserve"
   sodipodi:docname="napster.svg"
   inkscape:version="1.1.2 (0a00cf5339, 2022-02-04)"
   xmlns:inkscape="http://www.inkscape.org/namespaces/inkscape"
   xmlns:sodipodi="http://sodipodi.sourceforge.net/DTD/sodipodi-0.dtd"
   xmlns="http://www.w3.org/2000/svg"
   xmlns:svg="http://www.w3.org/2000/svg"><defs
   id="defs33">
	
	
	
	
	
	
</defs><sodipodi:namedview
   id="namedview31"
   pagecolor="#ffffff"
   bordercolor="#666666"
   borderopacity="1.0"
   inkscape:pageshadow="2"
   inkscape:pageopacity="0.0"
   inkscape:pagecheckerboard="0"
   showgrid="false"
   fit-margin-top="0"
   fit-margin-left="0"
   fit-margin-right="0"
   fit-margin-bottom="0"
   inkscape:zoom="4.1717172"
   inkscape:cx="106.31114"
   inkscape:cy="57.650121"
   inkscape:window-width="1920"
   inkscape:window-height="997"
   inkscape:window-x="0"
   inkscape:window-y="23"
   inkscape:window-maximized="1"
   inkscape:current-layer="Layer_1" />

<g
   id="g839"
   transform="matrix(0.05860873,0,0,0.06170087,0.86434121,0.27683458)"><path
     id="path16"
     d="m 189.61133,27.927734 c -42.223,0 -80.23402,18.009813 -106.791018,46.757813 -18.575999,-5.141 -33.126953,-5.558594 -33.126953,-5.558594 v 46.558597 c -18.282,12.279 -30.316406,33.14622 -30.316406,56.82422 0,23.535 11.893188,44.29551 29.992188,56.60351 5.757,68.816 66.344189,122.95899 140.242189,122.95899 73.703,0 134.1624,-53.85702 140.1914,-122.41602 18.563,-12.233 30.82032,-33.25548 30.82032,-57.14648 0,-23.678 -12.03341,-44.54327 -30.31641,-56.82227 V 69.126953 c 0,0 -14.87123,0.428422 -33.74023,5.732422 -26.564,-28.851 -64.64708,-46.931641 -106.95508,-46.931641 z m 0,27.984375 c 30.513,0 58.40281,11.152313 79.88281,29.570313 -4.73,2.481 -9.40839,5.341859 -13.90039,8.630859 -18.993,-12.347 -41.63947,-19.544922 -65.98047,-19.544922 -24.165,0 -46.65936,7.094344 -65.56836,19.277344 -4.533,-3.287 -9.24958,-6.148094 -14.01758,-8.621094 21.438,-18.266 49.21199,-29.3125 79.58399,-29.3125 z M 76.900391,100.99805 c 21.939,4.783 38.018949,17.55225 46.001949,25.15625 18.68,-13.36 41.74099,-21.27149 66.70899,-21.27149 24.969,0 48.02998,7.91149 66.70898,21.27149 7.984,-7.603 24.06491,-20.37325 46.00391,-25.15625 v 113.48828 c 0,60.533 -50.46289,109.60156 -112.71289,109.60156 -62.247,0 -112.710939,-49.06956 -112.710939,-109.60156 z" /><path
     d="m 155.4085,262.6815 c 8.552,10.882 34.981,20.986 34.981,20.986 0,0 25.65,-10.104 34.201,-20.986 z"
     id="path20" /><path
     d="m 216.0395,289.1085 c 0,0 -8.281,4.664 -25.65,4.664 -17.371,0 -27.207,-4.664 -27.207,-4.664 -4.663,2.332 -7.774,12.438 -7.774,12.438 6.997,6.219 26.474,9.328 34.981,9.328 8.506,0 26.428,-3.109 33.424,-9.328 0,0 -3.109,-10.106 -7.774,-12.438 z"
     id="path22" /><path
     d="m 104.8835,210.5995 41.198,0.778 c 0,0 31.87,-3.887 34.979,37.311 l -45.862,-1.554 c 0.001,0 -26.429,-3.111 -30.315,-36.535 z"
     id="path24" /><path
     d="m 197.3845,248.6875 41.199,-0.776 c 0,0 31.87,3.886 34.979,-37.313 l -45.862,1.556 c -0.001,0 -26.429,3.109 -30.316,36.533 z"
     id="path26" /></g>
</svg>
