<svg height="24" viewBox="0 0 .45024 .45022971" width="24" xmlns="http://www.w3.org/2000/svg">
    <g transform="matrix(.87064691 0 0 .91666878 .02912 .018759)">
        <path d="m.36157026.24027599v-.009189h.0790217v.0183771h-.0790217v-.009189zm0-.0294034v-.00918859h.0790217v.0183771h-.0790217v-.009189zm0-.0294034v-.009189h.0790217v.0183772h-.0790217v-.009189zm0-.0303223v-.009189h.0790217v.019296h-.0790217v-.0101074zm0-.0284846v-.0101074h.0790217v.0202149h-.0790217v-.01010749z" />
        <path d="m.18514972.24027599v-.009189h.0790217v.0183771h-.0790217v-.009189zm0-.0294034v-.00918859h.0790217v.0183771h-.0790217v-.009189zm0-.0294034v-.009189h.0790217v.0183772h-.0790217v-.009189zm0-.0303223v-.009189h.0790217v.019296h-.0790217v-.0101074z" />
        <path d="m.27335999.24027599v-.009189h.0790217v.0183771h-.0790217v-.009189zm0-.0294034v-.00918859h.0790217v.0183771h-.0790217v-.009189z" />
        <path d="m.0978583.32848627v-.009189h.07718399v.0183771h-.07718399v-.009189zm0-.0303223v-.009189h.07718399v.0183771h-.07718399v-.009189zm0-.0294034v-.009189h.07718399v.0183771h-.07718399v-.009189z" />
        <path d="m.00964803.24027599v-.009189h.07718399v.0183771h-.07718399v-.009189zm0-.0294034v-.00918859h.07718399v.0183771h-.07718399v-.009189z" />
        <path d="m.36248912.32848627v-.009189h.077184v.0183771h-.077184v-.009189zm0-.0303223v-.009189h.077184v.0183771h-.077184v-.009189zm0-.0294034v-.009189h.077184v.0183771h-.077184v-.009189z" />
        <path d="m.27427885.32848627v-.009189h.077184v.0183771h-.077184v-.009189zm0-.0303223v-.009189h.077184v.0183771h-.077184v-.009189zm0-.0294034v-.009189h.077184v.0183771h-.077184v-.009189z" />
        <path d="m.18606857.32848627v-.009189h.077184v.0183771h-.077184v-.009189zm0-.0303223v-.009189h.077184v.0183771h-.077184v-.009189zm0-.0294034v-.009189h.077184v.0183771h-.077184v-.009189z" />
        <path d="m.00964803.32848627v-.009189h.07718399v.0183771h-.07718399v-.009189zm0-.0303223v-.009189h.07718399v.0183771h-.07718399v-.009189zm0-.0294034v-.009189h.07718399v.0183771h-.07718399v-.009189z" />
    </g>
</svg>