<svg height="24" viewBox="0 0 24 24" width="24" xmlns="http://www.w3.org/2000/svg">
    <path d="m20.688902 3.3259156c-.419004-.4302154-1.103217-.4351469-1.528231-.0110146l-2.159005 2.4575434 1.231363 1.2643116 2.444992-2.1639066c.425012-.4241325.429885-1.1167185.01092-1.5469338zm-4.606454 3.0608236-1.539112 1.5359196 1.517349 1.5579472 1.539113-1.5359189zm-2.308666 2.3038789-1.539113 1.5359179-1.517348-1.5579473-3.8477794 3.8397983c-1.0004225.998347-1.2098875 2.49768-.6530387 3.723831l-3.2165031 3.209833 1.5173486 1.557949 3.2165032-3.209832c1.2032758.581068 2.6873134.390416 3.6877364-.607937l3.847779-3.839796-1.51735-1.55795 1.539112-1.535918z"
            stroke-width="1.087242" />
</svg>