<?xml version="1.0" encoding="UTF-8" standalone="no"?>
<svg
   xmlns:dc="http://purl.org/dc/elements/1.1/"
   xmlns:cc="http://creativecommons.org/ns#"
   xmlns:rdf="http://www.w3.org/1999/02/22-rdf-syntax-ns#"
   xmlns:svg="http://www.w3.org/2000/svg"
   xmlns="http://www.w3.org/2000/svg"
   version="1.1"
   height="24"
   width="24"
   viewBox="0 0 0.45024 0.45022971"
   id="svg2">
  <metadata
     id="metadata3044">
    <rdf:RDF>
      <cc:Work
         rdf:about="">
        <dc:format>image/svg+xml</dc:format>
        <dc:type
           rdf:resource="http://purl.org/dc/dcmitype/StillImage" />
        <dc:title></dc:title>
      </cc:Work>
    </rdf:RDF>
  </metadata>
  <defs
     id="defs3042" />
  <style
     id="style3029">.st0{fill:#b1e3fa}.st1{fill:#f7bacf}.st2{fill:#e7ee9f}.st3{fill:#feea3a}.st4{fill:#fe9d7f}.st5{fill:#4ec2f6}.st6{fill:#ccdb38}.st7{fill:#fe3f80}.st8{fill:#fe3d02}</style>
  <g
     style="fill:#000000;fill-opacity:1"
     transform="matrix(0.87064691,0,0,0.91666878,0.02911997,0.0187593)"
     id="g4014">
    <path
       style="fill:#000000;fill-opacity:1"
       id="path59"
       class="st0"
       d="m 0.36157026,0.24027599 v -0.009189 h 0.0790217 v 0.0183771 h -0.0790217 v -0.009189 z m 0,-0.0294034 V 0.201684 h 0.0790217 v 0.0183771 h -0.0790217 v -0.009189 z m 0,-0.0294034 v -0.009189 h 0.0790217 v 0.0183772 h -0.0790217 v -0.009189 z m 0,-0.0303223 v -0.009189 h 0.0790217 v 0.019296 h -0.0790217 v -0.0101074 z m 0,-0.0284846 v -0.0101074 h 0.0790217 v 0.0202149 H 0.36157026 V 0.1226623 z" />
    <path
       style="fill:#000000;fill-opacity:1"
       id="path57"
       class="st1"
       d="m 0.18514972,0.24027599 v -0.009189 h 0.0790217 v 0.0183771 h -0.0790217 v -0.009189 z m 0,-0.0294034 V 0.201684 h 0.0790217 v 0.0183771 h -0.0790217 v -0.009189 z m 0,-0.0294034 v -0.009189 h 0.0790217 v 0.0183772 h -0.0790217 v -0.009189 z m 0,-0.0303223 v -0.009189 h 0.0790217 v 0.019296 h -0.0790217 v -0.0101074 z" />
    <path
       style="fill:#000000;fill-opacity:1"
       id="path55"
       class="st2"
       d="m 0.27335999,0.24027599 v -0.009189 h 0.0790217 v 0.0183771 h -0.0790217 v -0.009189 z m 0,-0.0294034 V 0.201684 h 0.0790217 v 0.0183771 h -0.0790217 v -0.009189 z" />
    <path
       style="fill:#000000;fill-opacity:1"
       id="path53"
       class="st3"
       d="m 0.0978583,0.32848627 v -0.009189 h 0.07718399 v 0.0183771 H 0.0978583 v -0.009189 z m 0,-0.0303223 v -0.009189 h 0.07718399 v 0.0183771 H 0.0978583 v -0.009189 z m 0,-0.0294034 v -0.009189 h 0.07718399 v 0.0183771 H 0.0978583 v -0.009189 z" />
    <path
       style="fill:#000000;fill-opacity:1"
       id="path51"
       class="st4"
       d="m 0.00964803,0.24027599 v -0.009189 h 0.07718399 v 0.0183771 H 0.00964803 v -0.009189 z m 0,-0.0294034 V 0.201684 H 0.08683202 V 0.2200611 H 0.00964803 v -0.009189 z" />
    <path
       style="fill:#000000;fill-opacity:1"
       id="path49"
       class="st5"
       d="m 0.36248912,0.32848627 v -0.009189 h 0.077184 v 0.0183771 h -0.077184 v -0.009189 z m 0,-0.0303223 v -0.009189 h 0.077184 v 0.0183771 h -0.077184 v -0.009189 z m 0,-0.0294034 v -0.009189 h 0.077184 v 0.0183771 h -0.077184 v -0.009189 z" />
    <path
       style="fill:#000000;fill-opacity:1"
       id="path47"
       class="st6"
       d="m 0.27427885,0.32848627 v -0.009189 h 0.077184 v 0.0183771 h -0.077184 v -0.009189 z m 0,-0.0303223 v -0.009189 h 0.077184 v 0.0183771 h -0.077184 v -0.009189 z m 0,-0.0294034 v -0.009189 h 0.077184 v 0.0183771 h -0.077184 v -0.009189 z" />
    <path
       style="fill:#000000;fill-opacity:1"
       id="path45"
       class="st7"
       d="m 0.18606857,0.32848627 v -0.009189 h 0.077184 v 0.0183771 h -0.077184 v -0.009189 z m 0,-0.0303223 v -0.009189 h 0.077184 v 0.0183771 h -0.077184 v -0.009189 z m 0,-0.0294034 v -0.009189 h 0.077184 v 0.0183771 h -0.077184 v -0.009189 z" />
    <path
       style="fill:#000000;fill-opacity:1"
       id="path43"
       class="st8"
       d="m 0.00964803,0.32848627 v -0.009189 h 0.07718399 v 0.0183771 H 0.00964803 v -0.009189 z m 0,-0.0303223 v -0.009189 h 0.07718399 v 0.0183771 H 0.00964803 v -0.009189 z m 0,-0.0294034 v -0.009189 h 0.07718399 v 0.0183771 H 0.00964803 v -0.009189 z" />
  </g>
</svg>
