<svg height="24" viewBox="0 -.005 .30854942 .3086112" width="24" xmlns="http://www.w3.org/2000/svg">
    <path d="m.134 12.143h13.215c3.699.527 5.972 2.48 6.339 6.339v2.769h-14.286c-3.818-.456-5.142-2.575-5.402-5.402zm20.982 9.107v-3.928c.23-2.926 1.3-5.224 5.312-5.312h3.616v3.705c-.17 3.079-1.428 5.39-5.625 5.625zm-10.982 2.054h10v4.018c-.01 3.604-1.963 4.778-4.821 4.82h-5.18v-8.838zm10.09-18.125c0 2.859-2.3 5.178-5.134 5.178-2.836 0-5.134-2.318-5.134-5.178-.003-2.86 2.293-5.182 5.129-5.184 2.835-.003 5.136 2.313 5.139 5.173v.01z"
            transform="matrix(.00856 0 0 .00856 .025686 .011759)" />
</svg>