<svg height="24mm" viewBox="0 0 24 24" width="24mm" xmlns="http://www.w3.org/2000/svg">
    <path d="m6.57 7a.8.8 0 0 0 -.8.8v2.7a3.6 3.6 0 0 0 -2-.6c-2 0-3.6 1.6-3.6 3.6s1.6 3.6 3.6 3.6 3.6-1.6 3.6-3.6c0-1.7 0-3.71 0-5.7a.8.8 0 0 0 -.8-.8zm11 0a.8.8 0 0 0 -.8.8v5.7c0 2 1.6 3.6 3.6 3.6s3.6-1.6 3.6-3.6-1.6-3.6-3.6-3.6c0 0-1.5 0-2 .6v-2.7a.7.7 0 0 0 -.8-.8zm-5.5 2.7c-2 0-3.6 1.6-3.6 3.6s1.6 3.6 3.6 3.6c.7 0 1.5-.2 2-.6a.8.8 0 0 0 .8.8.8.8 0 0 0 .7-.8v-3c0-2-1.6-3.6-3.6-3.6zm0 1.6c1 0 2 1 2 2s-1 2-2 2a2 2 0 0 1 -2-2c0-1 1-2 2-2zm-8.3.2c1 0 2 1 2 2s-1 2-2 2a2 2 0 0 1 -2-2c0-1 1-2 2-2zm16.6 0c1 0 2 1 2 2s-1 2-2 2a2 2 0 0 1 -2-2c0-1 1-2 2-2z" />
</svg>