<?xml version="1.0" encoding="UTF-8" standalone="no"?>
<!-- Svg Vector Icons : http://www.onlinewebfonts.com/icon -->

<svg
   version="1.1"
   x="0px"
   y="0px"
   viewBox="0 0 24 24"
   enable-background="new 0 0 1000 1000"
   xml:space="preserve"
   id="svg56"
   sodipodi:docname="soundcloud.svg"
   width="24"
   height="24"
   inkscape:version="1.1.2 (0a00cf5339, 2022-02-04)"
   xmlns:inkscape="http://www.inkscape.org/namespaces/inkscape"
   xmlns:sodipodi="http://sodipodi.sourceforge.net/DTD/sodipodi-0.dtd"
   xmlns="http://www.w3.org/2000/svg"
   xmlns:svg="http://www.w3.org/2000/svg"><defs
   id="defs60" /><sodipodi:namedview
   id="namedview58"
   pagecolor="#ffffff"
   bordercolor="#666666"
   borderopacity="1.0"
   inkscape:pageshadow="2"
   inkscape:pageopacity="0.0"
   inkscape:pagecheckerboard="0"
   showgrid="false"
   width="24px"
   inkscape:zoom="13.216"
   inkscape:cx="19.937954"
   inkscape:cy="25.31023"
   inkscape:window-width="1920"
   inkscape:window-height="997"
   inkscape:window-x="0"
   inkscape:window-y="23"
   inkscape:window-maximized="1"
   inkscape:current-layer="svg56" />
<metadata
   id="metadata2"> Svg Vector Icons : http://www.onlinewebfonts.com/icon </metadata>
<g
   id="g54"
   transform="matrix(0.02040816,0,0,0.0234192,1.79592,0.2904)"><g
     id="g22"><g
       id="g20"><path
         d="m 866.7,467 c -13.3,0 -25.9,2.7 -37.9,6.6 -13.5,-105.5 -106,-187.1 -218.4,-187.1 -27.5,0 -53.7,5.1 -78,14 v 413 H 866.7 C 934.8,713.5 990,658.4 990,590.3 990,522.2 934.8,467 866.7,467 Z"
         id="path4" /><path
         d="m 487.3,306.1 c -16,0 -29,13 -29,29 v 347.4 c 0,16 12.9,29 29,29 16,0 29,-13 29,-29 V 335.1 c -0.1,-16 -13,-29 -29,-29 z"
         id="path6" /><path
         d="m 412.6,352.7 c -16,0 -29,13 -29,29 v 300.8 c 0,16 13,29 29,29 16,0 28.9,-13 28.9,-29 V 381.7 c 0,-16 -13,-29 -28.9,-29 z"
         id="path8" /><path
         d="m 337.8,333.3 c -16,0 -29,13 -29,29 v 320.2 c 0,16 12.9,28.9 29,28.9 16,0 29,-13 29,-28.9 V 362.3 c 0,-16 -12.9,-29 -29,-29 z"
         id="path10" /><path
         d="m 263.1,376 c -16,0 -29,13 -29,29 v 277.6 c 0,16 12.9,28.9 29,28.9 16,0 28.9,-13 28.9,-28.9 V 405 c 0,-16 -12.9,-29 -28.9,-29 z"
         id="path12" /><path
         d="m 188.4,479.9 c -16,0 -28.9,12.9 -28.9,29 v 173.7 c 0,16 13,28.9 28.9,28.9 16,0 29,-13 29,-28.9 V 508.8 c -0.1,-16 -13,-28.9 -29,-28.9 z"
         id="path14" /><path
         d="m 113.7,479.9 c -16,0 -29,12.9 -29,29 v 173.7 c 0,16 12.9,28.9 29,28.9 16,0 29,-13 29,-28.9 V 508.8 c -0.1,-16 -13,-28.9 -29,-28.9 z"
         id="path16" /><path
         d="m 39,521.6 c -16,0 -29,12.9 -29,28.9 v 132 c 0,16 12.9,28.9 29,28.9 16,0 28.9,-13 28.9,-28.9 v -132 c 0,-16 -13,-28.9 -28.9,-28.9 z"
         id="path18" /></g></g><g
     id="g24" /><g
     id="g26" /><g
     id="g28" /><g
     id="g30" /><g
     id="g32" /><g
     id="g34" /><g
     id="g36" /><g
     id="g38" /><g
     id="g40" /><g
     id="g42" /><g
     id="g44" /><g
     id="g46" /><g
     id="g48" /><g
     id="g50" /><g
     id="g52" /></g>
</svg>
