<svg height="24" viewBox="0 0 10.56 10.558733" width="24" xmlns="http://www.w3.org/2000/svg">
    <path d="m.89596 7.5867243c.0267-.044621.0693-.047338.128-.00836 1.33334.8081427 2.78403 1.2121983 4.35204 1.2121983 1.04534 0 2.07735-.2034176 3.09603-.6102739.0267-.011181.0653-.027901.116-.05016.0507-.022258.0867-.038978.108-.050159.08-.03344.14267-.01672.18801.050159.0453.066879.0307.1281785-.044.1839182-.096.0724184-.21868.1560593-.36801.2507981-.45867.2842372-.97068.5043851-1.53601.6604438-.56535.1560588-1.11735.2340777-1.65602.2340777-.83201 0-1.61869-.1518788-2.36002-.4556154-.74135-.3037472-1.40535-.7315032-1.99202-1.2832681-.032-.027901-.048-.055698-.048-.083599 0-.01672.005-.03344.016-.05016zm2.40802-2.382597c0-.3845562.0907-.7133831.272-.9864806.18133-.2730976.42934-.4793054.74401-.6186443.288-.1281784.64267-.2201375 1.06401-.2758772.144-.0167199.37867-.0389781.70401-.0668794v-.1421185c0-.3566968-.0373-.5963442-.112-.7189633-.112-.1671983-.28801-.2507975-.52801-.2507975h-.064c-.176.0167198-.328.0752392-.456.1755582s-.21068.2396579-.24801.4180063c-.0213.1114586-.0747.1755583-.16.1922781l-.92001-.1170388c-.0907-.022258-.136-.072418-.136-.150489 0-.01672.003-.036261.008-.058519.0907-.4960151.31333-.8638619.66801-1.1035198.35467-.2396475.76933-.3734166 1.24401-.401276h.2c.60801 0 1.08268.1644187 1.42402.4932351a1.5241752 1.5927472 0 0 1 .148.1797486c.0453.064058.0813.1212188.108.1713783.0267.050159.0507.1226191.072.2173578.0213.094781.0373.1602387.048.1964581.0107.036261.0187.1142591.024.2340776.005.119829.008.1908883.008.2131883v2.0231207c0 .1448983.02.2772671.06.397096.04.1198185.0787.2062183.116.2591575.0373.052981.0987.1379386.184.2549774.032.05016.048.094781.048.1337691 0 .044621-.0213.083599-.064.1170388-.44267.401276-.68267.6186339-.72.6520735-.064.05016-.14134.055698-.232.01672-.0747-.0668795-.14001-.1309687-.19601-.1922782-.056-.0613409-.096-.1058993-.12-.1337587-.024-.0279012-.0627-.0822407-.116-.1630184-.0533-.0807776-.0907-.1351589-.112-.1630183-.29868.3399769-.59201.5517545-.88001.6353536-.18134.055698-.40534.083599-.67201.083599-.41067 0-.748-.1323584-1.01201-.397096-.264-.2647377-.396-.6395441-.396-1.1244192zm1.37601-.1671984c0 .2173579.052.3915263.15601.5224948.104.130979.244.196458.42.196458.016 0 .0387-.00313.068-.00836.0293-.00522.0493-.00836.06-.00836.224-.061341.39733-.2117776.52001-.4514355.0587-.1058992.10266-.2215378.132-.3469365.0293-.1253988.0453-.227118.048-.3051474.003-.078061.004-.2062078.004-.3845562v-.2089977c-.30934 0-.54401.022258-.70401.066879-.46934.1393393-.70401.4486562-.70401.9279615zm3.36004 2.691914c.0107-.022258.0267-.044621.048-.066879.13333-.094781.26133-.1588384.384-.1922781.20267-.055698.40001-.086421.59201-.091959.0533-.00522.104-.00314.152.00836.24.022258.384.064058.432.1253988.0213.03344.032.083599.032.1504785v.058519c0 .1950682-.0507.4249659-.152.6897035-.10133.2647377-.24267.4779156-.424.6395441-.0267.022258-.0507.03344-.072.03344-.0107 0-.0213-.00314-.032-.00836-.032-.01672-.04-.047338-.024-.091959.19733-.4848856.296-.8220724.296-1.0115604 0-.061341-.0107-.1058992-.032-.1337691-.0533-.066879-.20267-.100319-.448-.100319-.0907 0-.19734.00523-.32001.01672-.13334.01672-.256.03344-.368.05016-.032 0-.0533-.00523-.064-.01672-.0107-.011181-.0133-.022258-.008-.03344 0-.00523.003-.013898.008-.02508z" />
</svg>