<svg height="24" viewBox="0 0 24 24" width="24" xmlns="http://www.w3.org/2000/svg">
    <path d="m3.1111111 3h17.7777779a1.1111111.81818182 0 0 1 1.111111.8181818v3.2727273a1.1111111.81818182 0 0 1 -1.111111.8181818h-17.7777779a1.1111111.81818182 0 0 1 -1.1111111-.8181818v-3.2727273a1.1111111.81818182 0 0 1 1.1111111-.8181818m0 6.545455h17.7777779a1.1111111.81818182 0 0 1 1.111111.818181v3.272728a1.1111111.81818182 0 0 1 -1.111111.818181h-17.7777779a1.1111111.81818182 0 0 1 -1.1111111-.818181v-3.272728a1.1111111.81818182 0 0 1 1.1111111-.818181m0 6.545454h17.7777779a1.1111111.81818182 0 0 1 1.111111.818182v3.272727a1.1111111.81818182 0 0 1 -1.111111.818182h-17.7777779a1.1111111.81818182 0 0 1 -1.1111111-.818182v-3.272727a1.1111111.81818182 0 0 1 1.1111111-.818182m5.5555556-9.8181817h1.1111113v-1.6363637h-1.1111113zm0 6.5454547h1.1111113v-1.636364h-1.1111113zm0 6.545454h1.1111113v-1.636363h-1.1111113zm-4.4444445-14.7272724v1.6363637h2.2222222v-1.6363637zm0 6.5454544v1.636364h2.2222222v-1.636364zm0 6.545455v1.636363h2.2222222v-1.636363z" />
</svg>