<svg height="24" viewBox="0 0 13.9488 13.953947" width="24" xmlns="http://www.w3.org/2000/svg">
    <path d="m3.08484 2.9070935h.024c.18349.22103.39092.41679.58638.62833l1.3291 1.39558v.0252c-.64344.67253-1.284 1.35139-1.9275 2.02392-.64651-.67569-1.29002-1.35454-1.93652-2.03023.0331-.0663.0962-.11051.14432-.16419.59239-.62833 1.19381-1.24718 1.78016-1.87867zm3.87908 0h.024c.0181.0285.0361.0537.0601.079.62245.64728 1.23594 1.30402 1.86435 1.94814-.015.0379-.0481.0631-.0752.0916-.62241.65043-1.2419 1.30402-1.86436 1.95445-.64952-.67253-1.28701-1.35769-1.93954-2.02707.63148-.69147 1.29603-1.3577 1.93052-2.04601zm3.87906 0h.024c.12029.15157.2616.28102.39091.4231.48713.51151.97133 1.01985 1.45841 1.53135.0241.0285.0632.0537.0722.0947-.65251.66622-1.28399 1.3577-1.93953 2.02392l-1.84931-1.94182c-.0301-.0348-.0691-.06-.0842-.10418.32776-.33469.6465-.67885.97127-1.0167.31874-.33784.6435-.66622.95623-1.01038zm-5.78251 6.07805c.63448-.66622 1.27197-1.33243 1.90645-2.00181l.027.0126c.63749.67253 1.27498 1.34506 1.91849 2.01127-.021.0505-.0661.079-.0992.11999-.46302.48308-.92617.9724895-1.38923 1.4555795-.15036.15155-.29469.32205-.448.46414-.21951-.2084-.42098-.44205-.63454-.65675-.43295-.4546695-.86295-.9093395-1.29898-1.3608495.006-.0126.012-.0316.018-.0442z"
            stroke="#000" stroke-width=".002896" />
</svg>