<?xml version="1.0" encoding="windows-1252"?>
<!-- Generator: Adobe Illustrator 16.0.0, SVG Export Plug-In . SVG Version: 6.00 Build 0)  -->
<!DOCTYPE svg PUBLIC "-//W3C//DTD SVG 1.1//EN" "http://www.w3.org/Graphics/SVG/1.1/DTD/svg11.dtd">
<svg version="1.1" id="Capa_1" xmlns="http://www.w3.org/2000/svg" xmlns:xlink="http://www.w3.org/1999/xlink" x="0px" y="0px" width="430.117px" height="430.117px" viewBox="0 0 430.117 430.117" style="enable-background:new 0 0 430.117 430.117;" xml:space="preserve">
<g>
	<path id="last.fm" d="M344.253,342.619c-44.8-0.187-68.672-22.243-85.268-61.11l-4.724-10.613l-40.918-93.878   c-13.549-33.234-47.224-55.685-85.198-55.685c-51.384,0-93.073,41.973-93.073,93.74c0,51.772,41.689,93.748,93.073,93.748   c35.843,0,67.031-20.404,82.572-50.33l16.559,38.415c-23.487,28.833-59.193,47.188-99.136,47.188   C57.372,344.094,0,286.367,0,215.072C0,143.82,57.372,86.023,128.142,86.023c53.421,0,96.541,28.716,118.448,79.611   c1.685,3.946,23.177,54.59,41.938,97.691c11.621,26.678,21.521,44.365,53.662,45.458c31.568,1.092,53.238-18.253,53.238-42.714   c0-23.895-16.521-29.636-44.417-38.979c-50.124-16.629-76.026-33.337-76.026-73.372c0-39.049,26.388-65.092,69.269-65.092   c27.937,0,48.09,12.512,62.054,37.458l-27.4,14.094c-10.328-14.552-21.702-20.297-36.188-20.297   c-20.134,0-34.48,14.095-34.48,32.842c0,26.609,23.62,30.63,56.7,41.553c44.496,14.596,65.18,31.263,65.18,72.884   C430.117,310.864,392.874,342.689,344.253,342.619z"/>
</g>
<g>
</g>
<g>
</g>
<g>
</g>
<g>
</g>
<g>
</g>
<g>
</g>
<g>
</g>
<g>
</g>
<g>
</g>
<g>
</g>
<g>
</g>
<g>
</g>
<g>
</g>
<g>
</g>
<g>
</g>
</svg>