<svg height="24" viewBox="0 0 23.999999 24" width="24" xmlns="http://www.w3.org/2000/svg">
    <path d="m2.0677993 17.619419v2.810123h2.7121c-.0006001-1.545718-1.2209-2.810123-2.7121-2.810123zm0-3.722759v1.896867c2.5086 0 4.5423 2.107204 4.5423 4.706473h1.8307c-.068-3.652923-2.9156-6.60334-6.373-6.60334zm16.3390007-6.6034438h-12.7461007v1.5457184c3.5935 1.1939474 6.4404997 4.1444684 7.5932997 7.8678494h5.084701v-9.4135678h.068zm-16.3390007 2.8101238v1.896971c4.5423 0 8.2032007 3.793216 8.2032007 8.499689h1.7627c0-5.760645-4.4748007-10.39666-9.9659007-10.39666zm18.1691007-6.60334h-16.4064007c-1.0174 0-1.8307.8426952-1.8307 1.8968671v2.8102274h1.8307v-2.8102274h16.3390007v13.1363259h-6.373001v1.896971h6.373001c1.0168 0 1.8307-.842799 1.8307-1.896971v-13.1363259c-.000501-1.0541719-.813901-1.8968671-1.763301-1.8968671z" />
</svg>