<?xml version="1.0" encoding="UTF-8" standalone="no"?>
<svg
   xmlns:dc="http://purl.org/dc/elements/1.1/"
   xmlns:cc="http://creativecommons.org/ns#"
   xmlns:rdf="http://www.w3.org/1999/02/22-rdf-syntax-ns#"
   xmlns:svg="http://www.w3.org/2000/svg"
   xmlns="http://www.w3.org/2000/svg"
   version="1.1"
   width="24"
   height="24"
   viewBox="0 0 24 24"
   id="svg4">
  <metadata
     id="metadata10">
    <rdf:RDF>
      <cc:Work
         rdf:about="">
        <dc:format>image/svg+xml</dc:format>
        <dc:type
           rdf:resource="http://purl.org/dc/dcmitype/StillImage" />
      </cc:Work>
    </rdf:RDF>
  </metadata>
  <defs
     id="defs8" />
  <path
     d="M 21,3 V 15.5 A 3.5,3.5 0 0 1 17.5,19 3.5,3.5 0 0 1 14,15.5 3.5,3.5 0 0 1 17.5,12 c 0.54,0 1.05,0.12 1.5,0.34 V 6.47 L 9,8.6 v 8.9 A 3.5,3.5 0 0 1 5.5,21 3.5,3.5 0 0 1 2,17.5 3.5,3.5 0 0 1 5.5,14 c 0.54,0 1.05,0.12 1.5,0.34 V 6 L 21,3 z"
     id="path2" />
</svg>
