<?xml version="1.0" encoding="UTF-8" standalone="no"?>
<svg
   xmlns:dc="http://purl.org/dc/elements/1.1/"
   xmlns:cc="http://creativecommons.org/ns#"
   xmlns:rdf="http://www.w3.org/1999/02/22-rdf-syntax-ns#"
   xmlns:svg="http://www.w3.org/2000/svg"
   xmlns="http://www.w3.org/2000/svg"
   version="1.1"
   width="24"
   height="24"
   viewBox="0 0 24 24"
   id="svg4">
  <metadata
     id="metadata10">
    <rdf:RDF>
      <cc:Work
         rdf:about="">
        <dc:format>image/svg+xml</dc:format>
        <dc:type
           rdf:resource="http://purl.org/dc/dcmitype/StillImage" />
      </cc:Work>
    </rdf:RDF>
  </metadata>
  <defs
     id="defs8" />
  <path
     d="M 3.1111111,3 H 20.888889 A 1.1111111,0.81818182 0 0 1 22,3.8181818 V 7.0909091 A 1.1111111,0.81818182 0 0 1 20.888889,7.9090909 H 3.1111111 A 1.1111111,0.81818182 0 0 1 2,7.0909091 V 3.8181818 A 1.1111111,0.81818182 0 0 1 3.1111111,3 m 0,6.545455 H 20.888889 A 1.1111111,0.81818182 0 0 1 22,10.363636 v 3.272728 a 1.1111111,0.81818182 0 0 1 -1.111111,0.818181 H 3.1111111 A 1.1111111,0.81818182 0 0 1 2,13.636364 V 10.363636 A 1.1111111,0.81818182 0 0 1 3.1111111,9.545455 m 0,6.545454 H 20.888889 A 1.1111111,0.81818182 0 0 1 22,16.909091 v 3.272727 A 1.1111111,0.81818182 0 0 1 20.888889,21 H 3.1111111 A 1.1111111,0.81818182 0 0 1 2,20.181818 V 16.909091 A 1.1111111,0.81818182 0 0 1 3.1111111,16.090909 M 8.6666667,6.2727273 H 9.777778 V 4.6363636 H 8.6666667 v 1.6363637 m 0,6.5454547 H 9.777778 V 11.181818 H 8.6666667 v 1.636364 m 0,6.545454 H 9.777778 V 17.727273 H 8.6666667 v 1.636363 M 4.2222222,4.6363636 V 6.2727273 H 6.4444444 V 4.6363636 H 4.2222222 m 0,6.5454544 v 1.636364 H 6.4444444 V 11.181818 H 4.2222222 m 0,6.545455 v 1.636363 H 6.4444444 V 17.727273 H 4.2222222 z"
     id="path2" />
</svg>
