<svg viewBox="0 0 24 24" xmlns="http://www.w3.org/2000/svg">
    <path d="m23.2 357.3c0 10.8 7.7 15.2 17 9.8l23.5-13.6c9.4-5.4 24.7-14.3 34.1-19.7l23.5-13.6c4.4-2.5 6.7-5.8 7-9.2-5.5 8.6-26.6 15.3-52 15.7-.8 0-1.5 0-2.2 0-25.8 0-46.7-6.6-50.8-15.6l-.1-.3zm0-53.3c4.8 9 25.9 16.8 51.4 18.3 26 1.6 47.9-4 53.7-11.9 0-2-.8-4.1-2.4-5.9-7.9 7.2-27.1 12.6-49.7 12.9-.7 0-1.5 0-2.2 0-25.5 0-46.5-6.5-51-15.3v1.9zm0-9.5c4.9 9 25.9 16.8 51.4 18.3 22.6 1.3 42.3-2.5 50.7-9.2-1.1-1.1-2.4-2.1-4-3.1l-2.1-1.2c-9.7 4.9-25.3 8.2-42.9 8.4-.7 0-1.4 0-2.2 0-25.4 0-46.4-6.5-51-15.2v2zm0-9.4c4.9 9 25.9 16.8 51.4 18.3 17.2 1 32.7-1 42.8-5l-8-4.6c-9.1 2.7-20.6 4.4-33.1 4.6-.7 0-1.5 0-2.2 0-25.5 0-46.5-6.5-51-15.3v2zm8.8-33.6c-5.3.3-8.8 4.7-8.8 12.1v11.9c4.8 9 25.9 16.8 51.5 18.3 11.8.7 22.8 0 31.8-1.9l-8.6-5c-9.4-5.4-24.7-14.3-34.1-19.7l-23.5-13.6c-2.5-1.4-4.8-2.2-6.9-2.3h-1.4z"
            transform="matrix(.18993352 0 0 .16933599 -2.368471 -40.554134)" />
</svg>