<?xml version="1.0" encoding="UTF-8" standalone="no"?>
<svg
   xmlns:dc="http://purl.org/dc/elements/1.1/"
   xmlns:cc="http://creativecommons.org/ns#"
   xmlns:rdf="http://www.w3.org/1999/02/22-rdf-syntax-ns#"
   xmlns:svg="http://www.w3.org/2000/svg"
   xmlns="http://www.w3.org/2000/svg"
   version="1.1"
   width="24"
   height="24"
   viewBox="0 0 24 24"
   id="svg4">
  <metadata
     id="metadata10">
    <rdf:RDF>
      <cc:Work
         rdf:about="">
        <dc:format>image/svg+xml</dc:format>
        <dc:type
           rdf:resource="http://purl.org/dc/dcmitype/StillImage" />
      </cc:Work>
    </rdf:RDF>
  </metadata>
  <defs
     id="defs8" />
  <path
     d="M12.88,16.29L11,18.17V14.41M11,5.83L12.88,7.71L11,9.58M15.71,7.71L10,2H9V9.58L4.41,5L3,6.41L8.59,12L3,17.58L4.41,19L9,14.41V22H10L15.71,16.29L11.41,12M19.53,6.71L18.26,8C18.89,9.18 19.25,10.55 19.25,12C19.25,13.45 18.89,14.82 18.26,16L19.46,17.22C20.43,15.68 21,13.87 21,11.91C21,10 20.46,8.23 19.53,6.71M14.24,12L16.56,14.33C16.84,13.6 17,12.82 17,12C17,11.18 16.84,10.4 16.57,9.68L14.24,12Z"
     id="path2" />
</svg>
