<svg height="24" width="24" xmlns="http://www.w3.org/2000/svg">
    <path d="m11.667281 22.839396c-.0555-.089-1.01583-1.69824-2.1339996-3.57618-1.11816-1.87794-2.35038-3.94196-2.73826-4.58671-.86329-1.43499-1.02924-1.9134-.97676-2.81589.0196-.33679.087-.775.14982-.9738.0628-.1988 1.07109-1.9617302 2.2406-3.9176202 3.8090896-6.37028004 3.5523396-5.96424 3.7713896-5.96424.10663 0 .2423.0566.30148.1258.0592.0692.97556 1.58142 2.03638 3.36052 1.06083 1.7791 2.29406 3.84459 2.74053 4.58997.44646.74538.88089 1.5378902.96539 1.7611302.20632.54507.22434 1.66845.0357 2.22905-.16625.49422.008.18704-2.22789 3.92748-1.06348 1.7791-2.27186 3.80081-2.68529 4.49268-.41343.69188-.80137 1.31456-.86208 1.38375-.15906.18125-.49364.16176-.61706-.0359zm.88836-1.7983c.25699-.4441.46356-.84306.45905-.88657-.005-.0435-.67958-1.20192-1.50016-2.57424-.82058-1.37233-1.5581496-2.66297-1.6390496-2.8681-.11612-.29446-.14743-.53935-.14877-1.16366-.001-.68582.0226-.84983.18179-1.23636.1537796-.37348 1.5605096-2.7763602 3.6242996-6.1907602l.4485-.74201-.52095-.87536c-.28652-.48144-.70433-1.1757-.92847-1.5428-.22414-.36709-.40753-.69865-.40753-.7368 0-.0381-.0404-.0683-.0899-.0671-.10581.003-5.0403596 8.2237002-5.2967196 8.8244702-.19933.46712-.24349 1.34224-.0934 1.84985.0471.15921.6064 1.16198 1.2429 2.22837 3.4512196 5.7821 4.0635796 6.78886 4.1291996 6.78871.0395-.00007.28214-.36352.53912-.80762zm1.13099-1.87241c.0417-.0915.8553-1.46742 1.80798-3.05755.95269-1.59013 1.78481-3.05211 1.84915-3.24884.15508-.47411.11283-1.57382-.0744-1.9375-.27737-.53868-2.81166-4.7421302-2.85969-4.7431702-.0804-.002-3.66375 6.0340902-3.80855 6.4151602-.16447.43287-.17569 1.41532-.0211 1.85333.1565.44356 2.82818 4.88499 2.93851 4.88499.0508 0 .12648-.0749.16818-.16642z" />
</svg>