<svg height="24" viewBox="0 0 24 24" width="24" xmlns="http://www.w3.org/2000/svg">
    <path d="m13.112784 2.0000001h-2.221803v11.0961419h2.221803zm5.365657 2.4078628-1.577481 1.5756521c1.821879 1.4646908 2.877236 3.672823 2.877236 6.003013a7.7763138 7.7672994 0 0 1 -7.776313 7.767299c-4.2880822 0-7.7763143-3.461996-7.7763143-7.767299 0-2.3190939 1.0553568-4.5383222 2.866127-6.0141091l-1.5663717-1.564556c-4.2103185 3.5729577-4.72133342 9.8755661-1.1442291 14.0810041 3.5771044 4.194341 9.8870281 4.704764 14.0973461 1.131806 2.244022-1.89744 3.521559-4.693668 3.521559-7.634145 0-2.9182855-1.288646-5.692321-3.521559-7.5786651z"
            stroke-width="1.110258" />
</svg>