<?xml version="1.0" encoding="UTF-8" standalone="no"?>
<svg
   xmlns:dc="http://purl.org/dc/elements/1.1/"
   xmlns:cc="http://creativecommons.org/ns#"
   xmlns:rdf="http://www.w3.org/1999/02/22-rdf-syntax-ns#"
   xmlns:svg="http://www.w3.org/2000/svg"
   xmlns="http://www.w3.org/2000/svg"
   id="svg4"
   viewBox="0 0 24 24"
   height="24"
   width="24"
   version="1.1">
  <metadata
     id="metadata10">
    <rdf:RDF>
      <cc:Work
         rdf:about="">
        <dc:format>image/svg+xml</dc:format>
        <dc:type
           rdf:resource="http://purl.org/dc/dcmitype/StillImage" />
        <dc:title></dc:title>
      </cc:Work>
    </rdf:RDF>
  </metadata>
  <defs
     id="defs8" />
  <path
     style="stroke-width:1.11025786"
     id="path2"
     d="M 13.112784,2.0000001 H 10.890981 V 13.096142 h 2.221803 V 2.0000001 M 18.478441,4.4078629 16.90096,5.983515 c 1.821879,1.4646908 2.877236,3.672823 2.877236,6.003013 a 7.7763138,7.7672994 0 0 1 -7.776313,7.767299 c -4.2880822,0 -7.7763143,-3.461996 -7.7763143,-7.767299 0,-2.3190939 1.0553568,-4.5383222 2.866127,-6.0141091 L 5.525324,4.4078629 C 1.3150055,7.9808206 0.80399058,14.283429 4.3810949,18.488867 7.9581993,22.683208 14.268123,23.193631 18.478441,19.620673 20.722463,17.723233 22,14.927005 22,11.986528 22,9.0682425 20.711354,6.294207 18.478441,4.4078629 Z" />
</svg>
