<svg height="24" viewBox="0 0 24 24" width="24" xmlns="http://www.w3.org/2000/svg">
    <g transform="matrix(.83333333 0 0 .83333333 2 2)">
        <path d="m8 18h-2.6666667v-3.6l-5.3333333 4.8 5.3333333 4.8v-3.6h2.6666667zm-2.6666667-12h13.3333337v3.6l5.333333-4.8-5.333333-4.8v3.6h-16.0000003v7.2h2.6666666z"
                stroke-width="1.264911" />
        <path d="m22 13.25h-5.6l-1.4-1.5h-4.2c-.777 0-1.4.6675-1.4 1.5v9c0 .8325.623 1.5 1.4 1.5h11.2c.777 0 1.4-.6675 1.4-1.5v-7.5c0-.8325-.623-1.5-1.4-1.5m0 9h-11.2v-9h3.619l1.4 1.5h6.181z"
                stroke-width=".724569" />
    </g>
</svg>