<?xml version="1.0" encoding="UTF-8" standalone="no"?>
<svg
   xmlns:dc="http://purl.org/dc/elements/1.1/"
   xmlns:cc="http://creativecommons.org/ns#"
   xmlns:rdf="http://www.w3.org/1999/02/22-rdf-syntax-ns#"
   xmlns:svg="http://www.w3.org/2000/svg"
   xmlns="http://www.w3.org/2000/svg"
   id="svg4"
   viewBox="0 0 30 30"
   height="30"
   width="30"
   version="1.1">
  <metadata
     id="metadata10">
    <rdf:RDF>
      <cc:Work
         rdf:about="">
        <dc:format>image/svg+xml</dc:format>
        <dc:type
           rdf:resource="http://purl.org/dc/dcmitype/StillImage" />
        <dc:title />
      </cc:Work>
    </rdf:RDF>
  </metadata>
  <defs
     id="defs8" />
  <path
     id="path2"
     d="M 7,4 C 5.89,4 5,4.89 5,6 v 4 c 0,1.11 0.89,2 2,2 H 4 v 2 h 12 v -2 h -3 c 1.11,0 2,-0.89 2,-2 V 6 C 15,4.89 14.11,4 13,4 H 7 m 0,2 h 6 v 4 H 7 V 6 m 10,10 c -1.11,0 -2,0.89 -2,2 v 4 c 0,1.11 0.89,2 2,2 h -3 v 2 h 12 v -2 h -3 c 1.11,0 2,-0.89 2,-2 v -4 c 0,-1.11 -0.89,-2 -2,-2 H 17 M 6.88,16.46 5.46,17.88 7.59,20 5.46,22.12 6.88,23.54 9,21.41 11.12,23.54 12.54,22.12 10.41,20 12.54,17.88 11.12,16.46 9,18.59 6.88,16.46 M 17,18 h 6 v 4 h -6 z" />
</svg>
