<?xml version="1.0" encoding="UTF-8" standalone="no"?>
<svg
   xmlns:dc="http://purl.org/dc/elements/1.1/"
   xmlns:cc="http://creativecommons.org/ns#"
   xmlns:rdf="http://www.w3.org/1999/02/22-rdf-syntax-ns#"
   xmlns:svg="http://www.w3.org/2000/svg"
   xmlns="http://www.w3.org/2000/svg"
   version="1.1"
   width="24"
   height="24"
   viewBox="0 0 24 24"
   id="svg4">
  <metadata
     id="metadata10">
    <rdf:RDF>
      <cc:Work
         rdf:about="">
        <dc:format>image/svg+xml</dc:format>
        <dc:type
           rdf:resource="http://purl.org/dc/dcmitype/StillImage" />
      </cc:Work>
    </rdf:RDF>
  </metadata>
  <defs
     id="defs8" />
  <path
     d="M5,9V21H1V9H5M9,21A2,2 0 0,1 7,19V9C7,8.45 7.22,7.95 7.59,7.59L14.17,1L15.23,2.06C15.5,2.33 15.67,2.7 15.67,3.11L15.64,3.43L14.69,8H21C22.11,8 23,8.9 23,10V12C23,12.26 22.95,12.5 22.86,12.73L19.84,19.78C19.54,20.5 18.83,21 18,21H9M9,19H18.03L21,12V10H12.21L13.34,4.68L9,9.03V19Z"
     id="path2" />
</svg>
