<?xml version="1.0" encoding="UTF-8" standalone="no"?>
<svg
   xmlns:dc="http://purl.org/dc/elements/1.1/"
   xmlns:cc="http://creativecommons.org/ns#"
   xmlns:rdf="http://www.w3.org/1999/02/22-rdf-syntax-ns#"
   xmlns:svg="http://www.w3.org/2000/svg"
   xmlns="http://www.w3.org/2000/svg"
   version="1.1"
   width="24"
   height="24"
   viewBox="0 0 24 24"
   id="svg4">
  <metadata
     id="metadata10">
    <rdf:RDF>
      <cc:Work
         rdf:about="">
        <dc:format>image/svg+xml</dc:format>
        <dc:type
           rdf:resource="http://purl.org/dc/dcmitype/StillImage" />
      </cc:Work>
    </rdf:RDF>
  </metadata>
  <defs
     id="defs8" />
  <path
     d="M19,15V3H23V15H19M15,3A2,2 0 0,1 17,5V15C17,15.55 16.78,16.05 16.41,16.41L9.83,23L8.77,21.94C8.5,21.67 8.33,21.3 8.33,20.88L8.36,20.57L9.31,16H3C1.89,16 1,15.1 1,14V12C1,11.74 1.05,11.5 1.14,11.27L4.16,4.22C4.46,3.5 5.17,3 6,3H15M15,5H5.97L3,12V14H11.78L10.65,19.32L15,14.97V5Z"
     id="path2" />
</svg>
