<?xml version="1.0" encoding="UTF-8" standalone="no"?>
<svg
   xmlns:dc="http://purl.org/dc/elements/1.1/"
   xmlns:cc="http://creativecommons.org/ns#"
   xmlns:rdf="http://www.w3.org/1999/02/22-rdf-syntax-ns#"
   xmlns:svg="http://www.w3.org/2000/svg"
   xmlns="http://www.w3.org/2000/svg"
   version="1.1"
   width="24"
   height="24"
   viewBox="0 0 24 24"
   id="svg4">
  <metadata
     id="metadata10">
    <rdf:RDF>
      <cc:Work
         rdf:about="">
        <dc:format>image/svg+xml</dc:format>
        <dc:type
           rdf:resource="http://purl.org/dc/dcmitype/StillImage" />
      </cc:Work>
    </rdf:RDF>
  </metadata>
  <defs
     id="defs8" />
  <path
     d="M 21.5,10.8 13.2,2.5 c -0.7,-0.7 -1.7,-0.7 -2.4,0 l -8.3,8.3 c -0.7,0.7 -0.7,1.7 0,2.4 l 8.3,8.3 c 0.7,0.7 1.7,0.7 2.4,0 l 8.3,-8.3 c 0.6,-0.7 0.6,-1.7 0,-2.4 M 20.3,12 12,20.3 3.7,12 12,3.7 20.3,12 M 11,15.5 h 1.5 V 17 H 11 v -1.5 m 1,-8.55 c 2.7,0.11 3.87,2.83 2.28,4.86 -0.42,0.5 -1.09,0.83 -1.43,1.26 C 12.5,13.5 12.5,14 12.5,14.5 H 11 c 0,-0.85 0,-1.56 0.35,-2.06 0.33,-0.5 1,-0.8 1.42,-1.13 C 14,10.18 13.68,8.59 12,8.46 c -0.82,0 -1.5,0.67 -1.5,1.51 H 9 C 9,8.3 10.35,6.95 12,6.95 z"
     id="path2" />
</svg>
