<?xml version="1.0" encoding="UTF-8" standalone="no"?>
<svg
   xmlns:dc="http://purl.org/dc/elements/1.1/"
   xmlns:cc="http://creativecommons.org/ns#"
   xmlns:rdf="http://www.w3.org/1999/02/22-rdf-syntax-ns#"
   xmlns:svg="http://www.w3.org/2000/svg"
   xmlns="http://www.w3.org/2000/svg"
   version="1.1"
   width="24"
   height="24"
   viewBox="0 0 24 24"
   id="svg916">
  <metadata
     id="metadata922">
    <rdf:RDF>
      <cc:Work
         rdf:about="">
        <dc:format>image/svg+xml</dc:format>
        <dc:type
           rdf:resource="http://purl.org/dc/dcmitype/StillImage" />
        <dc:title></dc:title>
      </cc:Work>
    </rdf:RDF>
  </metadata>
  <defs
     id="defs920" />
  <path
     d="M 20.688902,3.3259156 C 20.269898,2.8957002 19.585685,2.8907687 19.160671,3.314901 l -2.159005,2.4575434 1.231363,1.2643116 2.444992,-2.1639066 c 0.425012,-0.4241325 0.429885,-1.1167185 0.01092,-1.5469338 z M 16.082448,6.3867392 14.543336,7.9226588 16.060685,9.480606 17.599798,7.9446871 Z M 13.773782,8.6906181 12.234669,10.226536 10.717321,8.6685887 6.8695416,12.508387 c -1.0004225,0.998347 -1.2098875,2.49768 -0.6530387,3.723831 L 2.9999998,19.442051 4.5173484,21 7.7338516,17.790168 c 1.2032758,0.581068 2.6873134,0.390416 3.6877364,-0.607937 l 3.847779,-3.839796 -1.51735,-1.55795 1.539112,-1.535918 z"
     id="path914"
     style="stroke-width:1.08724201" />
</svg>
