<svg viewBox="0 0 24 24" xmlns="http://www.w3.org/2000/svg">
    <path d="m7.5 7.5c-1.9 0-3.5 1.6-3.5 3.5 0 1.9 1.6 3.5 3.5 3.5h9c1.9 0 3.5-1.6 3.5-3.5 0-1.9-1.6-3.5-3.5-3.5s-3.5 1.6-3.5 3.5c0 0.7 0.2 1.4 0.6 2h-3.3c0.4-0.6 0.6-1.3 0.6-2 0-1.9-1.6-3.5-3.5-3.5zm0 1.5c1.1 0 2 0.9 2 2s-0.9 2-2 2-2-0.9-2-2c0-1.1 0.9-2 2-2zm9 0c1.1 0 2 0.9 2 2s-0.9 2-2 2-2-0.9-2-2 0.9-2 2-2z"/>
    <path d="m21 17h-18v-12h18m0-2h-18c-1.1 0-2 0.9-2 2v12c0 1.1 0.9 2 2 2h18c1.1 0 2-0.9 2-2v-12c0-1.1-0.9-2-2-2z"/>
</svg>