<?xml version="1.0" encoding="UTF-8" standalone="no"?>
<svg
   xmlns:dc="http://purl.org/dc/elements/1.1/"
   xmlns:cc="http://creativecommons.org/ns#"
   xmlns:rdf="http://www.w3.org/1999/02/22-rdf-syntax-ns#"
   xmlns:svg="http://www.w3.org/2000/svg"
   xmlns="http://www.w3.org/2000/svg"
   xml:space="preserve"
   viewBox="0 0 24 24"
   height="24"
   width="24"
   y="0px"
   x="0px"
   id="Capa_1"
   version="1.1"><metadata
     id="metadata1153"><rdf:RDF><cc:Work
         rdf:about=""><dc:format>image/svg+xml</dc:format><dc:type
           rdf:resource="http://purl.org/dc/dcmitype/StillImage" /><dc:title /></cc:Work></rdf:RDF></metadata><defs
     id="defs1151" /><g
     transform="matrix(0.24,0,0,0.24,0.72,0.72)"
     id="g1116"><path
       id="path1114"
       d="M 89,0 H 5 C 2.238,0 0,2.239 0,5 v 84 c 0,2.761 2.238,5 5,5 h 84 c 2.762,0 5,-2.239 5,-5 V 5 C 94,2.239 91.762,0 89,0 Z M 22.204,68.775 H 7.978 v -4.312 h 14.227 z m 0,-5.603 H 7.978 V 58.86 h 14.227 z m 0,-5.606 H 7.978 v -4.313 h 14.227 z m 0,-5.606 H 7.978 v -4.312 h 14.227 z m 0,-5.606 H 7.978 V 42.043 H 22.205 Z M 38.159,68.775 H 23.931 V 64.463 H 38.16 Z m 0,-5.603 H 23.931 V 58.86 H 38.16 Z m 0,-5.606 H 23.931 V 53.253 H 38.16 Z M 54.116,68.775 H 39.884 v -4.312 h 14.232 z m 0,-5.603 H 39.884 V 58.86 h 14.232 z m 0,-5.606 H 39.884 v -4.313 h 14.232 z m 0,-5.606 H 39.884 v -4.312 h 14.232 z m 0,-5.606 H 39.884 v -4.311 h 14.232 z m 0,-5.605 H 39.884 v -4.313 h 14.232 z m 0,-5.604 H 39.884 v -4.313 h 14.232 z m 15.95,33.63 H 55.839 v -4.312 h 14.229 v 4.312 z m 0,-5.603 H 55.839 V 58.86 h 14.229 v 4.312 z m 0,-5.606 H 55.839 v -4.313 h 14.229 v 4.313 z m 0,-5.606 H 55.839 v -4.312 h 14.229 v 4.312 z m 0,-5.606 H 55.839 v -4.311 h 14.229 v 4.311 z M 86.021,68.775 H 71.794 v -4.312 h 14.229 v 4.312 z m 0,-5.603 H 71.794 V 58.86 h 14.229 v 4.312 z m 0,-5.61 H 71.794 V 53.25 h 14.229 v 4.312 z m 0,-5.602 H 71.794 v -4.313 h 14.229 v 4.313 z m 0,-5.606 H 71.794 v -4.313 h 14.229 v 4.313 z m 0,-5.607 H 71.794 v -4.31 h 14.229 v 4.31 z m 0,-5.605 H 71.794 v -4.311 h 14.229 v 4.311 z m 0,-5.606 H 71.794 v -4.313 h 14.229 v 4.313 z" /></g><g
     transform="translate(-35.72,-34.279999)"
     id="g1118" /><g
     transform="translate(-35.72,-34.279999)"
     id="g1120" /><g
     transform="translate(-35.72,-34.279999)"
     id="g1122" /><g
     transform="translate(-35.72,-34.279999)"
     id="g1124" /><g
     transform="translate(-35.72,-34.279999)"
     id="g1126" /><g
     transform="translate(-35.72,-34.279999)"
     id="g1128" /><g
     transform="translate(-35.72,-34.279999)"
     id="g1130" /><g
     transform="translate(-35.72,-34.279999)"
     id="g1132" /><g
     transform="translate(-35.72,-34.279999)"
     id="g1134" /><g
     transform="translate(-35.72,-34.279999)"
     id="g1136" /><g
     transform="translate(-35.72,-34.279999)"
     id="g1138" /><g
     transform="translate(-35.72,-34.279999)"
     id="g1140" /><g
     transform="translate(-35.72,-34.279999)"
     id="g1142" /><g
     transform="translate(-35.72,-34.279999)"
     id="g1144" /><g
     transform="translate(-35.72,-34.279999)"
     id="g1146" /></svg>