<?xml version="1.0" encoding="UTF-8" standalone="no"?>
<svg
   xmlns:dc="http://purl.org/dc/elements/1.1/"
   xmlns:cc="http://creativecommons.org/ns#"
   xmlns:rdf="http://www.w3.org/1999/02/22-rdf-syntax-ns#"
   xmlns:svg="http://www.w3.org/2000/svg"
   xmlns="http://www.w3.org/2000/svg"
   id="svg866"
   version="1.1"
   viewBox="0 0 13.9488 13.953948"
   height="24"
   width="24">
  <metadata
     id="metadata872">
    <rdf:RDF>
      <cc:Work
         rdf:about="">
        <dc:format>image/svg+xml</dc:format>
        <dc:type
           rdf:resource="http://purl.org/dc/dcmitype/StillImage" />
        <dc:title />
      </cc:Work>
    </rdf:RDF>
  </metadata>
  <defs
     id="defs870" />
  <path
     style="stroke-width:0.13953948"
     d="m 1.1136963,0.4190271 c -0.38540797,0 -0.69724317,0.31197474 -0.69724318,0.6972432 V 12.837677 c 0,0.38527 0.31183521,0.697244 0.69724318,0.697244 H 12.835104 c 0.385408,0 0.697243,-0.311974 0.697243,-0.697244 V 1.1162703 c 0,-0.38526846 -0.311835,-0.69724319 -0.697243,-0.6972432 z m 1.5829918,2.1996091 h 0.027254 c 0.2017889,0.2367027 0.428934,0.4456952 0.643871,0.6722606 l 1.4626208,1.494417 v 0.027254 C 4.1228399,5.5328193 3.4179761,6.2601206 2.710315,6.9803804 1.9993541,6.2567391 1.2920835,5.5293879 0.5811115,4.8057541 0.61753154,4.7347491 0.68607851,4.6872265 0.73895647,4.6297399 1.3904155,3.9568224 2.0518532,3.2949356 2.6966881,2.6186362 Z m 4.2663562,0 h 0.026118 c 0.01991,0.030442 0.039343,0.057009 0.065863,0.084033 0.684522,0.6932075 1.3597803,1.3962261 2.050849,2.0860517 -0.016504,0.040564 -0.052969,0.068368 -0.082897,0.098795 C 8.338532,5.5841038 7.6566288,6.2837917 6.9721289,6.9803804 6.2578449,6.2601206 5.5571035,5.5260314 4.8395185,4.8091608 5.5339425,4.0686117 6.2653079,3.3557964 6.9630443,2.6186362 Z m 4.2652207,0 h 0.02725 c 0.132265,0.1623081 0.287038,0.3009313 0.429248,0.4530946 0.535689,0.5478071 1.068923,1.091971 1.604568,1.6397705 0.02652,0.030443 0.06856,0.057127 0.07835,0.1010663 -0.717586,0.7134889 -1.411724,1.454316 -2.13261,2.1678128 L 9.2012628,4.9011424 C 9.1682547,4.8639524 9.1258952,4.8360479 9.1092813,4.7887205 9.4697187,4.4302814 9.8195843,4.06266 10.176722,3.7008394 10.527246,3.3390187 10.884344,2.9872201 11.228265,2.6186362 Z m -4.2618142,4.3651513 0.029525,0.013627 C 7.6970237,7.7176675 8.3982137,8.438104 9.1058748,9.1516002 9.0827688,9.2057332 9.0332768,9.2359652 8.9968595,9.2799207 8.4876649,9.7972929 7.9776242,10.321699 7.4683749,10.839065 7.3030258,11.00138 7.1441183,11.183142 6.9755354,11.335312 6.7341368,11.112135 6.5131446,10.86233 6.2782921,10.63239 5.8021723,10.145457 5.3292257,9.6589977 4.8497387,9.1754474 c 0.0066,-0.013491 0.01384,-0.034204 0.02044,-0.047694 C 5.5679151,8.4142555 6.2687139,7.7006582 6.9664508,6.9837875 Z"
     id="path1114" />
</svg>
