<?xml version="1.0" encoding="UTF-8" standalone="no"?>
<svg
   xmlns:dc="http://purl.org/dc/elements/1.1/"
   xmlns:cc="http://creativecommons.org/ns#"
   xmlns:rdf="http://www.w3.org/1999/02/22-rdf-syntax-ns#"
   xmlns:svg="http://www.w3.org/2000/svg"
   xmlns="http://www.w3.org/2000/svg"
   id="svg5648"
   version="1.1"
   width="24"
   height="24">
  <metadata
     id="metadata5654">
    <rdf:RDF>
      <cc:Work
         rdf:about="">
        <dc:format>image/svg+xml</dc:format>
        <dc:type
           rdf:resource="http://purl.org/dc/dcmitype/StillImage" />
        <dc:title />
      </cc:Work>
    </rdf:RDF>
  </metadata>
  <defs
     id="defs5652" />
  <path
     style="fill:#000000;fill-opacity:1"
     d="m 11.667281,22.839396 c -0.0555,-0.089 -1.01583,-1.69824 -2.1339996,-3.57618 -1.11816,-1.87794 -2.35038,-3.94196 -2.73826,-4.58671 -0.86329,-1.43499 -1.02924,-1.9134 -0.97676,-2.81589 0.0196,-0.33679 0.087,-0.775 0.14982,-0.9738 0.0628,-0.1988 1.07109,-1.9617302 2.2406,-3.9176202 3.8090896,-6.37028004 3.5523396,-5.96424 3.7713896,-5.96424 0.10663,0 0.2423,0.0566 0.30148,0.1258 0.0592,0.0692 0.97556,1.58142 2.03638,3.36052 1.06083,1.7791 2.29406,3.84459 2.74053,4.58997 0.44646,0.74538 0.88089,1.5378902 0.96539,1.7611302 0.20632,0.54507 0.22434,1.66845 0.0357,2.22905 -0.16625,0.49422 0.008,0.18704 -2.22789,3.92748 -1.06348,1.7791 -2.27186,3.80081 -2.68529,4.49268 -0.41343,0.69188 -0.80137,1.31456 -0.86208,1.38375 -0.15906,0.18125 -0.49364,0.16176 -0.61706,-0.0359 z m 0.88836,-1.7983 c 0.25699,-0.4441 0.46356,-0.84306 0.45905,-0.88657 -0.005,-0.0435 -0.67958,-1.20192 -1.50016,-2.57424 -0.82058,-1.37233 -1.5581496,-2.66297 -1.6390496,-2.8681 -0.11612,-0.29446 -0.14743,-0.53935 -0.14877,-1.16366 -10e-4,-0.68582 0.0226,-0.84983 0.18179,-1.23636 0.1537796,-0.37348 1.5605096,-2.7763602 3.6242996,-6.1907602 l 0.4485,-0.74201 -0.52095,-0.87536 c -0.28652,-0.48144 -0.70433,-1.1757 -0.92847,-1.5428 -0.22414,-0.36709 -0.40753,-0.69865 -0.40753,-0.7368 0,-0.0381 -0.0404,-0.0683 -0.0899,-0.0671 -0.10581,0.003 -5.0403596,8.2237002 -5.2967196,8.8244702 -0.19933,0.46712 -0.24349,1.34224 -0.0934,1.84985 0.0471,0.15921 0.6064,1.16198 1.2429,2.22837 3.4512196,5.7821 4.0635796,6.78886 4.1291996,6.78871 0.0395,-7e-5 0.28214,-0.36352 0.53912,-0.80762 z m 1.13099,-1.87241 c 0.0417,-0.0915 0.8553,-1.46742 1.80798,-3.05755 0.95269,-1.59013 1.78481,-3.05211 1.84915,-3.24884 0.15508,-0.47411 0.11283,-1.57382 -0.0744,-1.9375 -0.27737,-0.53868 -2.81166,-4.7421302 -2.85969,-4.7431702 -0.0804,-0.002 -3.66375,6.0340902 -3.80855,6.4151602 -0.16447,0.43287 -0.17569,1.41532 -0.0211,1.85333 0.1565,0.44356 2.82818,4.88499 2.93851,4.88499 0.0508,0 0.12648,-0.0749 0.16818,-0.16642 z"
     id="path5658" />
</svg>
