<?xml version="1.0" encoding="UTF-8" standalone="no"?>
<svg
   xmlns:dc="http://purl.org/dc/elements/1.1/"
   xmlns:cc="http://creativecommons.org/ns#"
   xmlns:rdf="http://www.w3.org/1999/02/22-rdf-syntax-ns#"
   xmlns:svg="http://www.w3.org/2000/svg"
   xmlns="http://www.w3.org/2000/svg"
   height="100%"
   width="100%"
   xml:space="preserve"
   viewBox="0 0 24 24"
   y="0px"
   x="0px"
   id="Capa_1"
   version="1.1"><metadata
     id="metadata4061"><rdf:RDF><cc:Work
         rdf:about=""><dc:format>image/svg+xml</dc:format><dc:type
           rdf:resource="http://purl.org/dc/dcmitype/StillImage" /><dc:title></dc:title></cc:Work></rdf:RDF></metadata><defs
     id="defs4059" /><g
     transform="matrix(0.18993352,0,0,0.16933599,-2.3684708,-40.554134)"
     id="g4021"><g
       id="g4023"><path
         id="SVGID_1_"
         d="m 23.2,357.3 c 0,10.8 7.7,15.2 17,9.8 l 23.5,-13.6 c 9.4,-5.4 24.7,-14.3 34.1,-19.7 l 23.5,-13.6 c 4.4,-2.5 6.7,-5.8 7,-9.2 -5.5,8.6 -26.6,15.3 -52,15.7 -0.8,0 -1.5,0 -2.2,0 -25.8,0 -46.7,-6.6 -50.8,-15.6 l -0.1,-0.3 z m 0,-53.3 c 4.8,9 25.9,16.8 51.4,18.3 26,1.6 47.9,-4 53.7,-11.9 0,-2 -0.8,-4.1 -2.4,-5.9 -7.9,7.2 -27.1,12.6 -49.7,12.9 -0.7,0 -1.5,0 -2.2,0 -25.5,0 -46.5,-6.5 -51,-15.3 v 1.9 z m 0,-9.5 c 4.9,9 25.9,16.8 51.4,18.3 22.6,1.3 42.3,-2.5 50.7,-9.2 -1.1,-1.1 -2.4,-2.1 -4,-3.1 l -2.1,-1.2 c -9.7,4.9 -25.3,8.2 -42.9,8.4 -0.7,0 -1.4,0 -2.2,0 -25.4,0 -46.4,-6.5 -51,-15.2 v 2 z m 0,-9.4 c 4.9,9 25.9,16.8 51.4,18.3 17.2,1 32.7,-1 42.8,-5 l -8,-4.6 c -9.1,2.7 -20.6,4.4 -33.1,4.6 -0.7,0 -1.5,0 -2.2,0 -25.5,0 -46.5,-6.5 -51,-15.3 v 2 z M 32,251.5 c -5.3,0.3 -8.8,4.7 -8.8,12.1 v 11.9 c 4.8,9 25.9,16.8 51.5,18.3 11.8,0.7 22.8,0 31.8,-1.9 l -8.6,-5 C 88.5,281.5 73.2,272.6 63.8,267.2 L 40.3,253.6 c -2.5,-1.4 -4.8,-2.2 -6.9,-2.3 H 32 Z" /></g></g><g
     transform="translate(0,-488)"
     id="g4027" /><g
     transform="translate(0,-488)"
     id="g4029" /><g
     transform="translate(0,-488)"
     id="g4031" /><g
     transform="translate(0,-488)"
     id="g4033" /><g
     transform="translate(0,-488)"
     id="g4035" /><g
     transform="translate(0,-488)"
     id="g4037" /><g
     transform="translate(0,-488)"
     id="g4039" /><g
     transform="translate(0,-488)"
     id="g4041" /><g
     transform="translate(0,-488)"
     id="g4043" /><g
     transform="translate(0,-488)"
     id="g4045" /><g
     transform="translate(0,-488)"
     id="g4047" /><g
     transform="translate(0,-488)"
     id="g4049" /><g
     transform="translate(0,-488)"
     id="g4051" /><g
     transform="translate(0,-488)"
     id="g4053" /><g
     transform="translate(0,-488)"
     id="g4055" /></svg>