<?xml version="1.0" encoding="UTF-8" standalone="no"?>
<svg
   xmlns:dc="http://purl.org/dc/elements/1.1/"
   xmlns:cc="http://creativecommons.org/ns#"
   xmlns:rdf="http://www.w3.org/1999/02/22-rdf-syntax-ns#"
   xmlns:svg="http://www.w3.org/2000/svg"
   xmlns="http://www.w3.org/2000/svg"
   xmlns:sodipodi="http://sodipodi.sourceforge.net/DTD/sodipodi-0.dtd"
   xmlns:inkscape="http://www.inkscape.org/namespaces/inkscape"
   width="24"
   height="24"
   viewBox="0 0 10.56 10.558733"
   id="svg4888"
   version="1.1"
   inkscape:version="0.48.4 r9939"
   sodipodi:docname="media_item_amazon.svg">
  <metadata
     id="metadata4896">
    <rdf:RDF>
      <cc:Work
         rdf:about="">
        <dc:format>image/svg+xml</dc:format>
        <dc:type
           rdf:resource="http://purl.org/dc/dcmitype/StillImage" />
      </cc:Work>
    </rdf:RDF>
  </metadata>
  <defs
     id="defs4894" />
  <sodipodi:namedview
     pagecolor="#ffffff"
     bordercolor="#666666"
     borderopacity="1"
     objecttolerance="10"
     gridtolerance="10"
     guidetolerance="10"
     inkscape:pageopacity="0"
     inkscape:pageshadow="2"
     inkscape:window-width="1680"
     inkscape:window-height="951"
     id="namedview4892"
     showgrid="false"
     inkscape:zoom="4.6986981"
     inkscape:cx="-39.437636"
     inkscape:cy="31.724962"
     inkscape:window-x="0"
     inkscape:window-y="26"
     inkscape:window-maximized="1"
     inkscape:current-layer="svg4888" />
  <path
     d="m 0.89596,7.5867243 c 0.0267,-0.044621 0.0693,-0.047338 0.128,-0.00836 1.33334,0.8081427 2.78403,1.2121983 4.35204,1.2121983 1.04534,0 2.07735,-0.2034176 3.09603,-0.6102739 0.0267,-0.011181 0.0653,-0.027901 0.116,-0.05016 0.0507,-0.022258 0.0867,-0.038978 0.108,-0.050159 0.08,-0.03344 0.14267,-0.01672 0.18801,0.050159 0.0453,0.066879 0.0307,0.1281785 -0.044,0.1839182 C 8.74404,8.3864653 8.62136,8.4701062 8.47203,8.564845 8.01336,8.8490822 7.50135,9.0692301 6.93602,9.2252888 6.37067,9.3813476 5.81867,9.4593665 5.28,9.4593665 4.44799,9.4593665 3.66131,9.3074877 2.91998,9.0037511 2.17863,8.7000039 1.51463,8.2722479 0.92796,7.720483 c -0.032,-0.027901 -0.048,-0.055698 -0.048,-0.083599 0,-0.01672 0.005,-0.03344 0.016,-0.05016 z m 2.40802,-2.382597 c 0,-0.3845562 0.0907,-0.7133831 0.272,-0.9864806 C 3.75731,3.9445491 4.00532,3.7383413 4.31999,3.5990024 4.60799,3.470824 4.96266,3.3788649 5.384,3.3231252 5.528,3.3064053 5.76267,3.2841471 6.08801,3.2562458 V 3.1141273 c 0,-0.3566968 -0.0373,-0.5963442 -0.112,-0.7189633 C 5.86401,2.2279657 5.688,2.1443665 5.448,2.1443665 H 5.384 C 5.208,2.1610863 5.056,2.2196057 4.928,2.3199247 4.8,2.4202437 4.71732,2.5595826 4.67999,2.737931 4.65869,2.8493896 4.60529,2.9134893 4.51999,2.9302091 L 3.59998,2.8131703 c -0.0907,-0.022258 -0.136,-0.072418 -0.136,-0.150489 0,-0.01672 0.003,-0.036261 0.008,-0.058519 C 3.56268,2.1081472 3.78531,1.7403004 4.13999,1.5006425 4.49466,1.260995 4.90932,1.1272259 5.384,1.0993665 h 0.2 c 0.60801,0 1.08268,0.1644187 1.42402,0.4932351 a 1.5241752,1.5927472 0 0 1 0.148,0.1797486 c 0.0453,0.064058 0.0813,0.1212188 0.108,0.1713783 0.0267,0.050159 0.0507,0.1226191 0.072,0.2173578 0.0213,0.094781 0.0373,0.1602387 0.048,0.1964581 0.0107,0.036261 0.0187,0.1142591 0.024,0.2340776 0.005,0.119829 0.008,0.1908883 0.008,0.2131883 V 4.827931 c 0,0.1448983 0.02,0.2772671 0.06,0.397096 0.04,0.1198185 0.0787,0.2062183 0.116,0.2591575 0.0373,0.052981 0.0987,0.1379386 0.184,0.2549774 0.032,0.05016 0.048,0.094781 0.048,0.1337691 0,0.044621 -0.0213,0.083599 -0.064,0.1170388 -0.44267,0.401276 -0.68267,0.6186339 -0.72,0.6520735 -0.064,0.05016 -0.14134,0.055698 -0.232,0.01672 C 6.73332,6.5918838 6.66801,6.5277946 6.61201,6.4664851 6.55601,6.4051442 6.51601,6.3605858 6.49201,6.3327264 6.46801,6.3048252 6.42931,6.2504857 6.37601,6.169708 6.32271,6.0889304 6.28531,6.0345491 6.26401,6.0066897 5.96533,6.3466666 5.672,6.5584442 5.384,6.6420433 c -0.18134,0.055698 -0.40534,0.083599 -0.67201,0.083599 -0.41067,0 -0.748,-0.1323584 -1.01201,-0.397096 -0.264,-0.2647377 -0.396,-0.6395441 -0.396,-1.1244192 z M 4.67999,5.0369289 c 0,0.2173579 0.052,0.3915263 0.15601,0.5224948 0.104,0.130979 0.244,0.196458 0.42,0.196458 0.016,0 0.0387,-0.00313 0.068,-0.00836 0.0293,-0.00522 0.0493,-0.00836 0.06,-0.00836 0.224,-0.061341 0.39733,-0.2117776 0.52001,-0.4514355 0.0587,-0.1058992 0.10266,-0.2215378 0.132,-0.3469365 0.0293,-0.1253988 0.0453,-0.227118 0.048,-0.3051474 0.003,-0.078061 0.004,-0.2062078 0.004,-0.3845562 V 4.0420884 c -0.30934,0 -0.54401,0.022258 -0.70401,0.066879 C 4.91466,4.2483067 4.67999,4.5576236 4.67999,5.0369289 z m 3.36004,2.691914 c 0.0107,-0.022258 0.0267,-0.044621 0.048,-0.066879 0.13333,-0.094781 0.26133,-0.1588384 0.384,-0.1922781 0.20267,-0.055698 0.40001,-0.086421 0.59201,-0.091959 0.0533,-0.00522 0.104,-0.00314 0.152,0.00836 0.24,0.022258 0.384,0.064058 0.432,0.1253988 0.0213,0.03344 0.032,0.083599 0.032,0.1504785 v 0.058519 c 0,0.1950682 -0.0507,0.4249659 -0.152,0.6897035 -0.10133,0.2647377 -0.24267,0.4779156 -0.424,0.6395441 -0.0267,0.022258 -0.0507,0.03344 -0.072,0.03344 -0.0107,0 -0.0213,-0.00314 -0.032,-0.00836 -0.032,-0.01672 -0.04,-0.047338 -0.024,-0.091959 0.19733,-0.4848856 0.296,-0.8220724 0.296,-1.0115604 0,-0.061341 -0.0107,-0.1058992 -0.032,-0.1337691 -0.0533,-0.066879 -0.20267,-0.100319 -0.448,-0.100319 -0.0907,0 -0.19734,0.00523 -0.32001,0.01672 -0.13334,0.01672 -0.256,0.03344 -0.368,0.05016 -0.032,0 -0.0533,-0.00523 -0.064,-0.01672 -0.0107,-0.011181 -0.0133,-0.022258 -0.008,-0.03344 0,-0.00523 0.003,-0.013898 0.008,-0.02508 z"
     id="path4890"
     inkscape:connector-curvature="0" />
</svg>
