<?xml version="1.0" encoding="UTF-8" standalone="no"?>
<svg
   xmlns:dc="http://purl.org/dc/elements/1.1/"
   xmlns:cc="http://creativecommons.org/ns#"
   xmlns:rdf="http://www.w3.org/1999/02/22-rdf-syntax-ns#"
   xmlns:svg="http://www.w3.org/2000/svg"
   xmlns="http://www.w3.org/2000/svg"
   version="1.1"
   width="24"
   height="24"
   viewBox="0 0 24 24"
   id="svg4">
  <metadata
     id="metadata10">
    <rdf:RDF>
      <cc:Work
         rdf:about="">
        <dc:format>image/svg+xml</dc:format>
        <dc:type
           rdf:resource="http://purl.org/dc/dcmitype/StillImage" />
        <dc:title />
      </cc:Work>
    </rdf:RDF>
  </metadata>
  <defs
     id="defs8" />
  <path
     style="stroke-width:0.23999999"
     d="M 1.9199219 0.72070312 C 1.2570419 0.72070312 0.72070312 1.257282 0.72070312 1.9199219 L 0.72070312 22.080078 C 0.72070312 22.74272 1.2570419 23.279297 1.9199219 23.279297 L 22.080078 23.279297 C 22.742958 23.279297 23.279297 22.74272 23.279297 22.080078 L 23.279297 1.9199219 C 23.279297 1.2572819 22.742958 0.72070312 22.080078 0.72070312 L 1.9199219 0.72070312 z M 11.871094 2 A 3.5360788 3.3010154 0 0 1 15.402344 5.296875 A 3.5335145 3.2986217 0 0 1 11.871094 8.59375 A 3.5360788 3.3010154 0 0 1 8.3398438 5.296875 A 3.5037694 3.2708539 0 0 1 9.3730469 2.9648438 A 3.5099236 3.2765989 0 0 1 11.871094 2 z M 18.941406 9.5585938 L 21.664062 9.5585938 C 21.848687 9.5585938 22 9.6992207 22 9.8710938 L 22 12.451172 A 3.1011847 2.8950312 0 0 1 18.902344 15.34375 L 16.185547 15.341797 A 0.33642751 0.31406325 0 0 1 15.841797 15.029297 L 15.841797 12.451172 A 3.1027232 2.8964675 0 0 1 18.941406 9.5585938 z M 2.3359375 9.5996094 L 11.841797 9.5996094 C 13.556757 9.5996094 14.951172 10.896976 14.951172 12.492188 L 14.951172 15.070312 A 0.33694035 0.31454201 0 0 1 14.615234 15.384766 C 14.609593 15.384766 14.60237 15.383808 14.595703 15.384766 L 5.0976562 15.384766 A 3.1022104 2.8959888 0 0 1 2 12.490234 L 2 9.9121094 C 2 9.7392788 2.150287 9.5996094 2.3359375 9.5996094 z M 9.1289062 16.214844 L 14.615234 16.214844 A 0.33796605 0.31549952 0 0 1 14.953125 16.529297 L 14.953125 19.107422 A 3.1027232 2.8964675 0 0 1 11.853516 22 L 9.1367188 22 C 8.9438883 22 8.7929688 21.863203 8.7929688 21.6875 L 8.7929688 16.529297 A 0.33694035 0.31454201 0 0 1 9.1289062 16.214844 z "
     id="path1114" />
  <g
     transform="matrix(0.11,0,0,0.11363636,-5.16,0.636364)"
     id="Logos">
    <g
       id="Logo__x2013__Horizontal_1A_12_">
      <g
         id="Logo_2_" />
    </g>
  </g>
  <g
     transform="matrix(0.51284681,0,0,0.47875496,2.0000001,1.4010891)"
     style="fill:#2cb5a7"
     id="g875">
    <g
       id="g873" />
  </g>
</svg>
