<?xml version="1.0" encoding="UTF-8" standalone="no"?>
<svg
   xmlns:dc="http://purl.org/dc/elements/1.1/"
   xmlns:cc="http://creativecommons.org/ns#"
   xmlns:rdf="http://www.w3.org/1999/02/22-rdf-syntax-ns#"
   xmlns:svg="http://www.w3.org/2000/svg"
   xmlns="http://www.w3.org/2000/svg"
   version="1.1"
   width="24"
   height="24"
   viewBox="0 0 24 24"
   id="svg4">
  <metadata
     id="metadata10">
    <rdf:RDF>
      <cc:Work
         rdf:about="">
        <dc:format>image/svg+xml</dc:format>
        <dc:type
           rdf:resource="http://purl.org/dc/dcmitype/StillImage" />
      </cc:Work>
    </rdf:RDF>
  </metadata>
  <defs
     id="defs8" />
  <path
     d="m 15,7 v 4 h 1 v 2 H 13 V 5 h 2 L 12,1 9,5 h 2 v 8 H 8 V 10.93 C 8.7,10.56 9.2,9.85 9.2,9 9.2,7.78 8.21,6.8 7,6.8 5.78,6.8 4.8,7.78 4.8,9 4.8,9.85 5.3,10.56 6,10.93 V 13 a 2,2 0 0 0 2,2 h 3 v 3.05 C 10.29,18.41 9.8,19.15 9.8,20 A 2.2,2.2 0 0 0 12,22.2 2.2,2.2 0 0 0 14.2,20 c 0,-0.85 -0.49,-1.59 -1.2,-1.95 V 15 h 3 a 2,2 0 0 0 2,-2 v -2 h 1 V 7 h -4 z"
     id="path2" />
</svg>
