<?xml version="1.0" encoding="UTF-8" standalone="no"?>
<svg
   xmlns:dc="http://purl.org/dc/elements/1.1/"
   xmlns:cc="http://creativecommons.org/ns#"
   xmlns:rdf="http://www.w3.org/1999/02/22-rdf-syntax-ns#"
   xmlns:svg="http://www.w3.org/2000/svg"
   xmlns="http://www.w3.org/2000/svg"
   width="24"
   height="24"
   viewBox="0 -0.005 0.30854942 0.3086112"
   id="svg4333"
   version="1.1">
  <metadata
     id="metadata4343">
    <rdf:RDF>
      <cc:Work
         rdf:about="">
        <dc:format>image/svg+xml</dc:format>
        <dc:type
           rdf:resource="http://purl.org/dc/dcmitype/StillImage" />
      </cc:Work>
    </rdf:RDF>
  </metadata>
  <defs
     id="defs4341" />
  <g
     id="g4335"
     transform="matrix(0.00856,0,0,0.00856,0.02568639,0.01175925)"
     style="fill:#000000;fill-opacity:1">
    <path
       d="m 0.134,12.143 h 13.215 c 3.699,0.527 5.972,2.48 6.339,6.339 v 2.769 H 5.402 C 1.584,20.795 0.26,18.676 0,15.849 l 0.134,-3.706 z m 20.982,9.107 v -3.928 c 0.23,-2.926 1.3,-5.224 5.312,-5.312 h 3.616 v 3.705 c -0.17,3.079 -1.428,5.39 -5.625,5.625 l -3.303,-0.09 z m -10.982,2.054 h 10 v 4.018 c -0.01,3.604 -1.963,4.778 -4.821,4.82 h -5.18 V 23.304 z M 20.224,5.179 c 0,2.859 -2.3,5.178 -5.134,5.178 -2.836,0 -5.134,-2.318 -5.134,-5.178 -0.003,-2.86 2.293,-5.182 5.129,-5.184 2.835,-0.003 5.136,2.313 5.139,5.173 v 0.01 z"
       id="path4337"
       style="fill:#000000;fill-opacity:1" />
  </g>
</svg>
