<?xml version="1.0" encoding="UTF-8" standalone="no"?>
<svg
   xmlns:dc="http://purl.org/dc/elements/1.1/"
   xmlns:cc="http://creativecommons.org/ns#"
   xmlns:rdf="http://www.w3.org/1999/02/22-rdf-syntax-ns#"
   xmlns:svg="http://www.w3.org/2000/svg"
   xmlns="http://www.w3.org/2000/svg"
   xmlns:sodipodi="http://sodipodi.sourceforge.net/DTD/sodipodi-0.dtd"
   xmlns:inkscape="http://www.inkscape.org/namespaces/inkscape"
   version="1.1"
   width="100%"
   height="100%"
   viewBox="0 0 23.999998 23.999998"
   id="Capa_1"
   xml:space="preserve"
   inkscape:version="0.48.4 r9939"
   sodipodi:docname="media_item_spotify.svg"><sodipodi:namedview
     pagecolor="#ffffff"
     bordercolor="#666666"
     borderopacity="1"
     objecttolerance="10"
     gridtolerance="10"
     guidetolerance="10"
     inkscape:pageopacity="0"
     inkscape:pageshadow="2"
     inkscape:window-width="1680"
     inkscape:window-height="951"
     id="namedview4199"
     showgrid="false"
     inkscape:zoom="9.8333342"
     inkscape:cx="-0.35593217"
     inkscape:cy="11.999999"
     inkscape:window-x="0"
     inkscape:window-y="26"
     inkscape:window-maximized="1"
     inkscape:current-layer="Capa_1" /><metadata
     id="metadata3114"><rdf:RDF><cc:Work
         rdf:about=""><dc:format>image/svg+xml</dc:format><dc:type
           rdf:resource="http://purl.org/dc/dcmitype/StillImage" /><dc:title /></cc:Work></rdf:RDF></metadata><defs
     id="defs3112" /><g
     transform="matrix(0.03932982,0,0,0.03932982,1.9999989,1.9999989)"
     id="g3064"><g
       id="g3066"><g
         id="g3068"><g
           id="g3070"><path
             d="M 254.26,0 C 113.845,0 0,113.845 0,254.26 0,394.675 113.845,508.52 254.26,508.52 394.675,508.52 508.52,394.675 508.52,254.26 508.52,113.813 394.675,0 254.26,0 z m 0,444.955 c -105.327,0 -190.695,-85.368 -190.695,-190.695 0,-105.327 85.368,-190.695 190.695,-190.695 105.327,0 190.695,85.368 190.695,190.695 0,105.327 -85.368,190.695 -190.695,190.695 z"
             id="path3072"
             style="fill:#090509"
             inkscape:connector-curvature="0" /><path
             d="m 384.568,201.787 c -50.089,-24.981 -103.96,-37.63 -160.247,-37.63 -29.303,0 -58.48,3.56 -86.798,10.584 -9.376,2.32 -15.065,13.635 -12.745,22.979 2.32,9.344 11.791,15.065 21.167,12.745 25.553,-6.325 51.933,-9.535 78.407,-9.535 50.788,0 99.416,11.41 144.61,33.944 2.479,1.24 5.149,1.843 7.755,1.843 6.452,0 12.586,-5.371 15.701,-11.505 4.291,-8.614 0.795,-19.134 -7.85,-23.425 z"
             id="path3074"
             style="fill:#090509"
             inkscape:connector-curvature="0" /><path
             d="m 224.321,311.977 c -23.614,0 -46.943,3.464 -69.349,10.425 -6.929,2.066 -10.774,16.749 -8.645,23.71 2.129,6.897 9.471,10.806 16.4,8.613 19.864,-6.166 40.618,-9.28 61.594,-9.28 35.024,0 69.699,8.867 100.242,25.776 l 6.325,1.621 c 4.64,0 9.122,-2.479 11.442,-6.833 3.464,-6.325 1.24,-21.676 -5.149,-25.14 -34.389,-18.881 -73.418,-28.892 -112.86,-28.892 z"
             id="path3076"
             style="fill:#090509"
             inkscape:connector-curvature="0" /><path
             d="m 360.064,273.615 c -41.635,-21.612 -88.546,-33.086 -135.711,-33.086 -26.316,0 -52.505,3.496 -77.772,10.393 -8.136,2.225 -12.935,16.114 -10.711,24.25 2.225,8.136 10.615,12.904 18.783,10.711 22.629,-6.166 46.116,-9.312 69.699,-9.312 42.906,0 83.779,9.948 121.663,29.621 2.225,1.176 4.64,1.78 7.024,1.78 5.562,0 10.87,-8.581 13.603,-13.794 3.815,-7.468 0.891,-16.717 -6.578,-20.563 z"
             id="path3078"
             style="fill:#090509"
             inkscape:connector-curvature="0" /></g></g></g></g><g
     transform="translate(0,-484.52)"
     id="g3080" /><g
     transform="translate(0,-484.52)"
     id="g3082" /><g
     transform="translate(0,-484.52)"
     id="g3084" /><g
     transform="translate(0,-484.52)"
     id="g3086" /><g
     transform="translate(0,-484.52)"
     id="g3088" /><g
     transform="translate(0,-484.52)"
     id="g3090" /><g
     transform="translate(0,-484.52)"
     id="g3092" /><g
     transform="translate(0,-484.52)"
     id="g3094" /><g
     transform="translate(0,-484.52)"
     id="g3096" /><g
     transform="translate(0,-484.52)"
     id="g3098" /><g
     transform="translate(0,-484.52)"
     id="g3100" /><g
     transform="translate(0,-484.52)"
     id="g3102" /><g
     transform="translate(0,-484.52)"
     id="g3104" /><g
     transform="translate(0,-484.52)"
     id="g3106" /><g
     transform="translate(0,-484.52)"
     id="g3108" /></svg>