<?xml version="1.0" encoding="UTF-8" standalone="no"?>
<svg
   xmlns:dc="http://purl.org/dc/elements/1.1/"
   xmlns:cc="http://creativecommons.org/ns#"
   xmlns:rdf="http://www.w3.org/1999/02/22-rdf-syntax-ns#"
   xmlns:svg="http://www.w3.org/2000/svg"
   xmlns="http://www.w3.org/2000/svg"
   version="1.1"
   width="24"
   height="24"
   viewBox="0 0 24 24"
   id="svg4">
  <metadata
     id="metadata10">
    <rdf:RDF>
      <cc:Work
         rdf:about="">
        <dc:format>image/svg+xml</dc:format>
        <dc:type
           rdf:resource="http://purl.org/dc/dcmitype/StillImage" />
      </cc:Work>
    </rdf:RDF>
  </metadata>
  <defs
     id="defs8" />
  <path
     d="m 13,3 h -2 v 10 h 2 V 3 m 4.83,2.17 -1.42,1.42 C 18.05,7.91 19,9.9 19,12 a 7,7 0 0 1 -7,7 C 8.14,19 5,15.88 5,12 5,9.91 5.95,7.91 7.58,6.58 L 6.17,5.17 c -3.79,3.22 -4.25,8.9 -1.03,12.69 3.22,3.78 8.9,4.24 12.69,1.02 C 19.85,17.17 21,14.65 21,12 21,9.37 19.84,6.87 17.83,5.17 z"
     id="path2" />
</svg>
