<?xml version="1.0" encoding="UTF-8" standalone="no"?>
<svg
   xmlns:dc="http://purl.org/dc/elements/1.1/"
   xmlns:cc="http://creativecommons.org/ns#"
   xmlns:rdf="http://www.w3.org/1999/02/22-rdf-syntax-ns#"
   xmlns:svg="http://www.w3.org/2000/svg"
   xmlns="http://www.w3.org/2000/svg"
   version="1.1"
   width="20.993692"
   height="21.00169"
   viewBox="0 0 20.993692 21.00169"
   id="svg2">
  <metadata
     id="metadata10">
    <rdf:RDF>
      <cc:Work
         rdf:about="">
        <dc:format>image/svg+xml</dc:format>
        <dc:type
           rdf:resource="http://purl.org/dc/dcmitype/StillImage" />
        <dc:title />
      </cc:Work>
    </rdf:RDF>
  </metadata>
  <defs
     id="defs8" />
  <path
     d="m 18.413692,9.26 c 0,0 2.58,1.48 2.58,3.13 0,1.61 -3,2.17 -6.32,2.01 0,0 -1.41,1.97 -2.76,2.8 1.46,2.74 2.58,3.8 2.55,3.8 0,0 -0.74,0.19 -2.97,-3.46 -1.34,0.85 -2.8299996,1.19 -3.4399996,0.66 -0.62,-0.53 -0.14,-1.42 0.12,-1.85 -0.27,0.15 -1.68,0.98 -2.93,0.98 -1.49,0 -1.7,-1.11 -1.7,-1.68 0,-2.15 2.07,-5.15 2.07,-5.15 0,0 -0.96,-2.12 -1.07,-3.78 -1.88,-0.16 -4.05000001,0.17 -4.52000001,0.32 -0.13,0 0.31,-0.32 0.47,-0.36 0.15,-0.05 1.91000001,-0.51 4.00000001,-0.51 0,-1.74 0.35,-3.34 1.41,-3.34 0.72,0 1.3,1.12 1.3,1.12 0,0 -0.01,-3.95 2.03,-3.95 2.0599996,0 4.2599996,4.61 4.2599996,4.61 0,0 2.22,0.21 3.85,0.98 0.65,-1.36 1.24,-1.98 1.96,-4.09 0.19,0.7 -0.61,2.5 -1.46,4.3 v 0 h 0 c 0,0 2.3,1.2 2.3,2.53 0,1.01 -1.73,0.93 -1.73,0.93 m -9.2399996,7.82 c 0.68,0.11 1.7299996,-0.48 1.7199996,-0.48 l -0.82,-1.53 -1.1799996,0.83 c -0.01,0.01 -0.76,0.98 0.28,1.18 M 18.643692,8.26 c 0,-0.66 -1.2,-1.41 -1.34,-1.49 l -0.92,1.48 1.28,0.62 c 0.42,-0.03 0.98,-0.02 0.98,-0.61 M 6.4936924,4.13 c -0.3,0 -0.91,0.44 -0.91,2.01 l 1.74,0.06 -0.11,-1.4 c -0.12,-0.3 -0.42,-0.67 -0.72,-0.67 m 2.18,10.15 c -1.26,-0.65 -2.02,-1.72 -2.64,-2.88 0,0 -1.58,2.65 -0.57,3.32 1.03,0.67 2.67,-0.06 3.21,-0.44 m 2.7899996,1.98 c 1.14,-0.87 4.22,-3.03 4.48,-6.68 -2.88,-1.64 -6.8299996,-2.37 -6.8299996,-2.37 0,0 -0.01,-0.5 0.08,-0.85 0.9399996,0.11 3.8899996,0.61 6.3299996,1.57 -0.68,-1.15 -1.19,-1.58 -1.66,-1.93 1.16,0.26 1.99,1.76 1.99,1.76 l 0.92,-1.3 c 0,0 -4.37,-2.35 -8.0899996,-0.54 -0.08,2.88 1.3999996,7.14 1.3999996,7.14 l -0.7699996,0.33 c -0.52,-1.05 -1.19,-2.8 -1.82,-6.22 -0.3,0.41 -0.83,0.88 -0.84,2.42 -0.46,-1.29 0.5,-2.66 0.51,-2.67 l -1.6,-0.16 c 0.1,1.66 0.98,5.94 3.61,7.27 2.3199996,-1.32 4.8199996,-3.99 5.4499996,-4.76 l 0.69,0.51 -4.47,4.69 c 1.24,0.03 1.97,-0.25 2.47,-0.47 -0.72,0.75 -1.96,0.82 -2.55,0.82 0.01,0.02 0.3,0.75 0.7,1.44 m 1.06,-11.71 c -0.03,-0.08 -1.37,-2.36 -2.5599996,-2.19 -0.78,0.25 -1.23,1.57 -1.24,3.01 0.53,-0.31 1.7699996,-0.87 3.7999996,-0.82 m 2.68,9.02 c 0,0 3.29,-0.07 3.19,-1.31 0,-1.2 -1.98,-2.43 -1.98,-2.41 0.01,2.12 -1.21,3.72 -1.21,3.72 z"
     id="path4" />
</svg>
