<?xml version="1.0" encoding="UTF-8" standalone="no"?>
<svg
   xmlns:dc="http://purl.org/dc/elements/1.1/"
   xmlns:cc="http://creativecommons.org/ns#"
   xmlns:rdf="http://www.w3.org/1999/02/22-rdf-syntax-ns#"
   xmlns:svg="http://www.w3.org/2000/svg"
   xmlns="http://www.w3.org/2000/svg"
   version="1.1"
   width="24"
   height="24"
   viewBox="0 0 24 24"
   id="svg3064">
  <metadata
     id="metadata3072">
    <rdf:RDF>
      <cc:Work
         rdf:about="">
        <dc:format>image/svg+xml</dc:format>
        <dc:type
           rdf:resource="http://purl.org/dc/dcmitype/StillImage" />
        <dc:title />
      </cc:Work>
    </rdf:RDF>
  </metadata>
  <defs
     id="defs3070" />
  <path
     d="m 4,5 -3,0 0,18 18,0 0,-3"
     id="path3898"
     style="fill:none;stroke:#000000;stroke-width:1;stroke-linecap:square;stroke-linejoin:bevel;stroke-miterlimit:4;stroke-opacity:1;stroke-dasharray:none;stroke-dashoffset:2.5" />
  <path
     d="M 23,20 4,20 4,1 23,1 z"
     id="path3900"
     style="fill:none;stroke:#000000;stroke-width:1;stroke-linecap:square;stroke-linejoin:bevel;stroke-miterlimit:4;stroke-opacity:1;stroke-dasharray:1, 3;stroke-dashoffset:1.5" />
  <path
     d="m 15.752281,6.8006096 v 3.1045283 h 0.726543 V 11.457401 H 14.299197 V 5.2483461 h 1.453084 L 13.572654,2.1438183 11.393026,5.2483461 h 1.453086 V 11.457401 H 10.666484 V 9.8508079 c 0.508579,-0.287168 0.871851,-0.8382227 0.871851,-1.4979348 0,-0.9468808 -0.719277,-1.7074904 -1.5983935,-1.7074904 -0.8863826,0 -1.5983939,0.7606096 -1.5983939,1.7074904 0,0.6597121 0.3632709,1.2107668 0.8718512,1.4979348 v 1.6065931 a 1.4530852,1.5522637 0 0 0 1.4530852,1.552264 h 2.179628 v 2.367202 c -0.515846,0.279407 -0.871852,0.853745 -0.871852,1.513457 a 1.5983938,1.7074901 0 0 0 1.598394,1.70749 1.5983938,1.7074901 0 0 0 1.598394,-1.70749 c 0,-0.659712 -0.356006,-1.23405 -0.871851,-1.513457 v -2.367202 h 2.179627 a 1.4530852,1.5522637 0 0 0 1.453085,-1.552264 V 9.9051379 h 0.726543 V 6.8006096 h -2.906171 z"
     id="path3957" />
</svg>
