<?xml version="1.0" encoding="UTF-8" standalone="no"?>
<svg
   xmlns:dc="http://purl.org/dc/elements/1.1/"
   xmlns:cc="http://creativecommons.org/ns#"
   xmlns:rdf="http://www.w3.org/1999/02/22-rdf-syntax-ns#"
   xmlns:svg="http://www.w3.org/2000/svg"
   xmlns="http://www.w3.org/2000/svg"
   height="108"
   width="108"
   xml:space="preserve"
   viewBox="0 0 108 108"
   y="0px"
   x="0px"
   id="Layer_1"
   version="1.1"><metadata
     id="metadata50"><rdf:RDF><cc:Work
         rdf:about=""><dc:format>image/svg+xml</dc:format><dc:type
           rdf:resource="http://purl.org/dc/dcmitype/StillImage" /><dc:title /></cc:Work></rdf:RDF></metadata><defs
     id="defs48" /><style
     id="style2"
     type="text/css">
	.st0{fill:url(#SVGID_1_);}
	.st1{fill:none;}
	.st2{fill:#FFFFFF;}
</style><radialGradient
     gradientTransform="translate(0,-733.90002)"
     gradientUnits="userSpaceOnUse"
     r="89.049599"
     cy="291.46289"
     cx="316.57599"
     id="SVGID_1_"><stop
       id="stop4"
       style="stop-color:#0096FF"
       offset="0" /><stop
       id="stop6"
       style="stop-color:#0077DD"
       offset="1" /></radialGradient><g
     transform="matrix(0.40426727,0,0,0.40426727,-73.970804,232.86806)"
     id="g70"><path
       class="st0"
       d="m 405.6,-353.40002 -178.1,0 v 0 -178.09999 0 l 178.1,0 v 0 z"
       id="path9"
       style="fill:url(#SVGID_1_)" /><g
       id="g43"
       transform="translate(0,-733.90002)"><path
         class="st1"
         d="M 282.3,354.4 253.8,326 c -3.2,-3.2 -3.2,-8.5 0,-11.7 l 58.6,-58.6 c 3.2,-3.2 8.5,-3.2 11.7,0 l 28.4,28.4 c 3.2,3.2 3.2,8.5 0,11.7 L 294,354.4 c -3.3,3.2 -8.5,3.2 -11.7,0 z"
         id="path11"
         style="fill:none" /><g
         id="g35"><path
           class="st2"
           d="M 353.4,283.1 325,254.6 c -3.8,-3.8 -9.9,-3.8 -13.7,0 l -58.6,58.6 c -1.8,1.8 -2.8,4.3 -2.8,6.8 0,2.6 1,5 2.8,6.8 l 28.4,28.4 c 1.8,1.8 4.3,2.8 6.8,2.8 2.6,0 5,-1 6.8,-2.8 l 58.6,-58.6 c 3.9,-3.6 3.9,-9.8 0.1,-13.5 z m -2,11.7 -58.6,58.6 c -1.3,1.3 -3,2 -4.9,2 -1.8,0 -3.6,-0.7 -4.9,-2 L 254.6,325 c -1.3,-1.3 -2,-3 -2,-4.9 0,-1.8 0.7,-3.6 2,-4.9 l 58.6,-58.6 c 1.3,-1.3 3,-2 4.9,-2 1.8,0 3.6,0.7 4.9,2 l 28.4,28.4 c 2.7,2.7 2.7,7.1 0,9.8 z"
           id="path13"
           style="fill:#ffffff" /><g
           id="g33"><g
             id="g27"><g
               id="g19"><rect
                 x="279.20001"
                 y="319.5"
                 transform="matrix(0.7071,0.7071,-0.7071,0.7071,311.086,-103.3061)"
                 class="st2"
                 width="2.2"
                 height="8.6999998"
                 id="rect15"
                 style="fill:#ffffff" /><rect
                 x="283.10001"
                 y="323.39999"
                 transform="matrix(0.7071,0.7071,-0.7071,0.7071,315.0191,-104.9352)"
                 class="st2"
                 width="2.2"
                 height="8.6999998"
                 id="rect17"
                 style="fill:#ffffff" /></g><g
               id="g25"><polygon
                 class="st2"
                 points="295.5,339.5 293.4,341.6 293.9,342.2 298.6,337.5 298,337 295.9,339.2 294.3,333.2 292.5,335 291.2,330.1 286.5,334.8 291.4,336.1 289.6,337.9 "
                 id="polygon21"
                 style="fill:#ffffff" /><polygon
                 class="st2"
                 points="268.6,312.5 266.4,314.7 265.9,314.1 270.5,309.5 271.1,310 268.9,312.2 274.8,313.8 273,315.6 277.9,316.9 273.2,321.5 271.9,316.7 270.2,318.4 "
                 id="polygon23"
                 style="fill:#ffffff" /></g></g><path
             class="st2"
             d="m 325.8,298.8 c 3.1,-6.4 1.6,-14.4 0.6,-18.1 -0.2,-0.9 -1.4,-1.2 -2,-0.5 l -2.8,2.8 -3.2,3.2 -7.8,7.8 c 0,0 0,0 0,0 -0.4,-1.2 -1.2,-2.4 -2.4,-3.2 -2.2,-1.6 -5.3,-1.5 -7.5,0.1 -3.4,2.6 -3.4,7.6 0,10.2 2.6,1.9 6.2,1.6 8.5,-0.7 L 321.6,288 c 0,0 0,0 0,0 4.1,3.7 4.2,10.8 4.2,10.8 0,0 0,0 0,0 z"
             id="path29"
             style="fill:#ffffff" /><path
             class="st2"
             d="m 278.7,297.1 32.2,32.2 c 0.6,0.6 0.6,1.7 0,2.3 v 0 c -0.6,0.6 -1.7,0.6 -2.3,0 l -32.2,-32.2 c -0.6,-0.6 -0.6,-1.7 0,-2.3 v 0 c 0.6,-0.7 1.7,-0.7 2.3,0 z"
             id="path31"
             style="fill:#ffffff" /></g></g><g
         id="g41"><path
           class="st2"
           d="m 330.6,245.8 c 0.3,0.3 0.7,0.5 1.2,0.5 7.6,0.3 15,3.3 20.8,9.1 5.8,5.8 8.8,13.2 9.1,20.8 0,0.4 0.2,0.9 0.5,1.2 v 0 c 1.1,1.1 3.1,0.3 3,-1.3 -0.3,-8.4 -3.7,-16.8 -10.1,-23.2 -6.4,-6.4 -14.7,-9.8 -23.2,-10.1 -1.5,-0.1 -2.4,1.9 -1.3,3 z"
           id="path37"
           style="fill:#ffffff" /><path
           class="st2"
           d="m 332.6,228.3 c 0.4,0.4 0.9,0.6 1.5,0.6 11.5,0.3 22.8,4.8 31.6,13.5 8.8,8.7 13.2,20.1 13.5,31.6 0,0.5 0.2,1.1 0.6,1.5 v 0 c 1.3,1.3 3.7,0.4 3.6,-1.5 -0.3,-12.5 -5.2,-24.9 -14.7,-34.5 -9.5,-9.6 -22,-14.4 -34.5,-14.7 -2,-0.1 -2.9,2.2 -1.6,3.5 z"
           id="path39"
           style="fill:#ffffff" /></g></g></g></svg>