<?xml version="1.0" encoding="UTF-8" standalone="no"?>
<svg
   xmlns:dc="http://purl.org/dc/elements/1.1/"
   xmlns:cc="http://creativecommons.org/ns#"
   xmlns:rdf="http://www.w3.org/1999/02/22-rdf-syntax-ns#"
   xmlns:svg="http://www.w3.org/2000/svg"
   xmlns="http://www.w3.org/2000/svg"
   height="108"
   width="108"
   xml:space="preserve"
   viewBox="0 0 108 108"
   y="0px"
   x="0px"
   id="Layer_1"
   version="1.1"><metadata
     id="metadata50"><rdf:RDF><cc:Work
         rdf:about=""><dc:format>image/svg+xml</dc:format><dc:type
           rdf:resource="http://purl.org/dc/dcmitype/StillImage" /><dc:title /></cc:Work></rdf:RDF></metadata><defs
     id="defs48" /><style
     id="style2"
     type="text/css">
	.st0{fill:url(#SVGID_1_);}
	.st1{fill:none;}
	.st2{fill:#FFFFFF;}
</style><radialGradient
     gradientTransform="matrix(0.62796207,0,0,0.62796207,-51.999997,-56.521318)"
     gradientUnits="userSpaceOnUse"
     r="84.4058"
     cy="175.9556"
     cx="168.8284"
     id="SVGID_1_"><stop
       id="stop4"
       style="stop-color:#0096FF"
       offset="0" /><stop
       id="stop6"
       style="stop-color:#0077DD"
       offset="1" /></radialGradient><circle
     style="fill:url(#SVGID_1_);stroke-width:0.62796205"
     id="circle9"
     r="53"
     cy="54"
     cx="54"
     class="st0" /><g
     transform="matrix(0.62796207,0,0,0.62796207,-51.999997,-56.521318)"
     id="g43"><path
       style="fill:none"
       id="path11"
       d="m 136.4,235.3 -26.8,-26.8 c -3.1,-3.1 -3.1,-8 0,-11.1 l 55.3,-55.3 c 3.1,-3.1 8,-3.1 11.1,0 l 26.8,26.8 c 3.1,3.1 3.1,8 0,11.1 l -55.3,55.3 c -3.1,3.1 -8,3.1 -11.1,0 z"
       class="st1" /><g
       id="g35"><path
         style="fill:#ffffff"
         id="path13"
         d="m 203.6,168 -26.8,-26.8 c -3.6,-3.6 -9.4,-3.6 -12.9,0 l -55.3,55.3 c -1.7,1.7 -2.7,4 -2.7,6.5 0,2.4 0.9,4.7 2.7,6.5 l 26.8,26.8 c 1.7,1.7 4,2.7 6.5,2.7 2.4,0 4.7,-1 6.5,-2.7 L 203.7,181 c 3.5,-3.6 3.5,-9.4 -0.1,-13 z m -1.9,11.1 -55.3,55.3 c -1.2,1.2 -2.9,1.9 -4.6,1.9 -1.7,0 -3.4,-0.7 -4.6,-1.9 l -26.8,-26.8 c -1.2,-1.2 -1.9,-2.9 -1.9,-4.6 0,-1.7 0.7,-3.4 1.9,-4.6 l 55.3,-55.3 c 1.2,-1.2 2.9,-1.9 4.6,-1.9 1.7,0 3.4,0.7 4.6,1.9 l 26.8,26.8 c 2.6,2.5 2.6,6.6 0,9.2 z"
         class="st2" /><g
         id="g33"><g
           id="g27"><g
             id="g19"><rect
               style="fill:#ffffff"
               id="rect15"
               height="8.1999998"
               width="2"
               class="st2"
               transform="matrix(0.7071,0.7071,-0.7071,0.7071,185.4463,-34.6411)"
               y="202.39999"
               x="133.5" /><rect
               style="fill:#ffffff"
               id="rect17"
               height="8.1999998"
               width="2"
               class="st2"
               transform="matrix(0.7071,0.7071,-0.7071,0.7071,189.1583,-36.1787)"
               y="206.10001"
               x="137.2" /></g><g
             id="g25"><polygon
               style="fill:#ffffff"
               id="polygon21"
               points="140.5,216.9 145.1,218.1 143.4,219.8 149,221.3 146.9,223.3 147.4,223.8 151.8,219.4 151.3,218.9 149.3,221 147.8,215.4 146.1,217 144.9,212.5 "
               class="st2" /><polygon
               style="fill:#ffffff"
               id="polygon23"
               points="127.9,204.3 126.7,199.7 125,201.4 123.5,195.8 121.5,197.9 121,197.4 125.4,193 125.9,193.5 123.8,195.5 129.4,197 127.7,198.7 132.3,199.9 "
               class="st2" /></g></g><path
           style="fill:#ffffff"
           id="path29"
           d="m 177.5,182.9 c 3,-6 1.5,-13.6 0.6,-17.1 -0.2,-0.8 -1.3,-1.1 -1.9,-0.5 l -2.6,2.6 -3,3 -7.3,7.3 c 0,0 0,0 0,0 -0.4,-1.2 -1.1,-2.3 -2.3,-3 -2.1,-1.5 -5,-1.5 -7.1,0.1 -3.2,2.4 -3.2,7.2 0,9.6 2.4,1.8 5.8,1.5 8,-0.6 l 11.7,-11.7 c 0,0 0,0 0,0 3.8,3.6 3.9,10.3 3.9,10.3 0,0 0,0 0,0 z"
           class="st2" /><path
           style="fill:#ffffff"
           id="path31"
           d="m 133.1,181.2 30.4,30.4 c 0.6,0.6 0.6,1.6 0,2.2 v 0 c -0.6,0.6 -1.6,0.6 -2.2,0 l -30.4,-30.4 c -0.6,-0.6 -0.6,-1.6 0,-2.2 v 0 c 0.6,-0.6 1.6,-0.6 2.2,0 z"
           class="st2" /></g></g><g
       id="g41"><path
         style="fill:#ffffff"
         id="path37"
         d="m 182.1,132.9 c 0.3,0.3 0.7,0.5 1.1,0.5 7.1,0.3 14.2,3.1 19.6,8.6 5.4,5.4 8.3,12.5 8.6,19.6 0,0.4 0.2,0.8 0.5,1.1 v 0 c 1.1,1.1 2.9,0.3 2.9,-1.2 -0.3,-8 -3.5,-15.8 -9.5,-21.9 -6.1,-6.1 -13.9,-9.2 -21.9,-9.5 -1.6,-0.1 -2.4,1.7 -1.3,2.8 z"
         class="st2" /><path
         style="fill:#ffffff"
         id="path39"
         d="m 184,116.4 c 0.4,0.4 0.9,0.6 1.4,0.6 10.8,0.3 21.5,4.5 29.8,12.7 8.2,8.2 12.5,19 12.7,29.8 0,0.5 0.2,1 0.6,1.4 v 0 c 1.3,1.3 3.5,0.4 3.4,-1.4 C 231.6,147.7 227,136 218,127 c -9,-9 -20.7,-13.6 -32.5,-13.9 -1.9,-0.2 -2.8,2 -1.5,3.3 z"
         class="st2" /></g></g></svg>