<?xml version="1.0" encoding="UTF-8" standalone="no"?>
<svg
   xmlns:dc="http://purl.org/dc/elements/1.1/"
   xmlns:cc="http://creativecommons.org/ns#"
   xmlns:rdf="http://www.w3.org/1999/02/22-rdf-syntax-ns#"
   xmlns:svg="http://www.w3.org/2000/svg"
   xmlns="http://www.w3.org/2000/svg"
   version="1.1"
   id="Layer_1"
   x="0px"
   y="0px"
   viewBox="0 0 108 108"
   xml:space="preserve"
   width="108"
   height="108"><metadata
     id="metadata42"><rdf:RDF><cc:Work
         rdf:about=""><dc:format>image/svg+xml</dc:format><dc:type
           rdf:resource="http://purl.org/dc/dcmitype/StillImage" /><dc:title /></cc:Work></rdf:RDF></metadata><defs
     id="defs40" /><style
     type="text/css"
     id="style2">
	.st0{fill:url(#SVGID_1_);}
	.st1{fill:#FFFFFF;}
</style><radialGradient
     id="SVGID_1_"
     cx="180.089"
     cy="174.4225"
     r="89.764397"
     gradientUnits="userSpaceOnUse"
     gradientTransform="matrix(0.59020043,0,0,0.59020043,-52.295101,-48.930951)"><stop
       offset="0"
       style="stop-color:#0096FF"
       id="stop4" /><stop
       offset="1"
       style="stop-color:#0077DD"
       id="stop6" /></radialGradient><circle
     style="fill:url(#SVGID_1_);stroke-width:0.59020042"
     class="st0"
     cx="54"
     cy="54"
     r="53"
     id="circle9" /><g
     id="g35"
     transform="matrix(0.59020043,0,0,0.59020043,-52.295101,-48.930951)"><path
       style="fill:#ffffff"
       class="st1"
       d="m 217.6,165.6 -28.7,-28.7 c -4,-4 -10.5,-4 -14.5,0 l -59.2,59.2 c -1.9,1.9 -3,4.5 -3,7.3 0,2.7 1.1,5.3 3,7.3 l 28.7,28.7 c 1.9,1.9 4.5,3 7.3,3 2.7,0 5.3,-1.1 7.3,-3 l 59.2,-59.2 c 3.9,-4 3.9,-10.6 -0.1,-14.6 z m -2.7,11.9 -59.2,59.2 c -1.2,1.2 -2.8,1.9 -4.6,1.9 -1.7,0 -3.3,-0.7 -4.6,-1.9 L 117.8,208 c -1.2,-1.2 -1.9,-2.8 -1.9,-4.6 0,-1.7 0.7,-3.3 1.9,-4.6 L 177,139.6 c 1.2,-1.2 2.8,-1.9 4.6,-1.9 1.7,0 3.3,0.7 4.6,1.9 l 28.7,28.7 c 2.5,2.6 2.5,6.7 0,9.2 z"
       id="path11" /><g
       id="g23"><g
         id="g17"><rect
           style="fill:#ffffff"
           x="139.3"
           y="205"
           transform="matrix(0.7071,-0.7071,0.7071,0.7071,-103.7639,162.363)"
           class="st1"
           width="9.6000004"
           height="2.9000001"
           id="rect13" /><rect
           style="fill:#ffffff"
           x="143.3"
           y="208.89999"
           transform="matrix(0.7071,-0.7071,0.7071,0.7071,-105.4075,166.331)"
           class="st1"
           width="9.6000004"
           height="2.9000001"
           id="rect15" /></g><polygon
         style="fill:#ffffff"
         class="st1"
         points="162.1,219.1 160.1,221.1 158.5,215.1 156.7,216.9 155.3,212 149.7,217.7 154.6,219 152.8,220.8 158.8,222.4 156.8,224.4 157.9,225.5 163.1,220.2 "
         id="polygon19" /><polygon
         style="fill:#ffffff"
         class="st1"
         points="137.6,197.9 139.4,196.1 133.4,194.5 135.4,192.5 134.3,191.4 129.1,196.6 130.1,197.7 132.1,195.7 133.7,201.7 135.5,199.9 136.8,204.8 142.5,199.2 "
         id="polygon21" /></g><path
       style="fill:#ffffff"
       class="st1"
       d="m 188.8,182.8 c 3.2,-6.5 1.8,-14.4 0.6,-18.6 -0.2,-0.6 -0.6,-1.1 -1.2,-1.2 -0.6,-0.2 -1.2,0 -1.7,0.4 l -13.3,13.3 c -0.5,-1.1 -1.3,-2.1 -2.3,-2.8 -2.4,-1.7 -5.8,-1.7 -8.2,0.1 -1.8,1.3 -2.8,3.4 -2.8,5.5 0,1.9 0.7,3.6 2,4.9 0.2,0.2 0.5,0.4 0.7,0.6 2.7,2.1 6.7,1.8 9.2,-0.7 l 12.1,-12.1 c 3.6,3.6 3.7,10 3.7,10.2 l 0.4,1.3 z"
       id="path25" /><path
       style="fill:#ffffff"
       class="st1"
       d="m 142.8,179.4 32.3,32.3 c 0.7,0.7 0.7,1.7 0,2.4 l -0.1,0.1 c -0.7,0.7 -1.7,0.7 -2.4,0 l -32.3,-32.3 c -0.7,-0.7 -0.7,-1.7 0,-2.4 l 0.1,-0.1 c 0.7,-0.7 1.7,-0.7 2.4,0 z"
       id="path27" /><g
       id="g33"><path
         style="fill:#ffffff"
         class="st1"
         d="m 229.9,158.6 c -0.3,-8.9 -4,-17.3 -10.3,-23.6 -6.3,-6.3 -14.7,-10 -23.6,-10.3 -0.9,0 -1.7,0.5 -2.1,1.3 -0.4,0.8 -0.2,1.8 0.5,2.4 0.4,0.4 0.9,0.6 1.5,0.6 7.8,0.3 15.2,3.5 20.7,9 5.5,5.5 8.7,12.9 9,20.7 0,0.6 0.2,1.1 0.6,1.5 0.6,0.6 1.6,0.8 2.4,0.5 0.8,-0.4 1.3,-1.2 1.3,-2.1 z"
         id="path29" /><path
         style="fill:#ffffff"
         class="st1"
         d="m 248,156.4 c -0.3,-13.2 -5.6,-25.6 -14.9,-35 -9.3,-9.3 -21.7,-14.6 -35,-14.9 -1,0 -1.8,0.5 -2.2,1.4 -0.4,0.9 -0.2,1.9 0.5,2.6 0.4,0.4 1,0.7 1.6,0.7 12,0.3 23.2,5.1 31.7,13.5 8.5,8.4 13.2,19.7 13.5,31.7 0,0.6 0.3,1.2 0.7,1.6 0.7,0.7 1.7,0.9 2.6,0.5 1,-0.3 1.5,-1.1 1.5,-2.1 z"
         id="path31" /></g></g></svg>