<?xml version="1.0" encoding="UTF-8" standalone="no"?>
<svg
   xmlns:dc="http://purl.org/dc/elements/1.1/"
   xmlns:cc="http://creativecommons.org/ns#"
   xmlns:rdf="http://www.w3.org/1999/02/22-rdf-syntax-ns#"
   xmlns:svg="http://www.w3.org/2000/svg"
   xmlns="http://www.w3.org/2000/svg"
   height="220.2"
   width="500"
   xml:space="preserve"
   viewBox="0 0 500.00001 220.19999"
   y="0px"
   x="0px"
   id="Layer_1"
   version="1.1"><metadata
     id="metadata77"><rdf:RDF><cc:Work
         rdf:about=""><dc:format>image/svg+xml</dc:format><dc:type
           rdf:resource="http://purl.org/dc/dcmitype/StillImage" /><dc:title></dc:title></cc:Work></rdf:RDF></metadata><defs
     id="defs75" /><style
     id="style2"
     type="text/css">
	.st0{fill:#0096FF;}
</style><g
     transform="translate(11.7,-10.000008)"
     id="g992"><path
       class="st0"
       d="m 275.8,79.200006 -28.7,-28.7 c -4,-4 -10.5,-4 -14.5,0 l -59.2,59.100004 c -1.9,1.89999 -3,4.49999 -3,7.29999 0,2.7 1.1,5.3 3,7.3 l 28.7,28.7 c 1.9,1.9 4.5,3 7.3,3 2.7,0 5.3,-1.1 7.3,-3 l 59.2,-59.199994 c 3.9,-4 3.9,-10.5 -0.1,-14.5 z m -2.7,11.8 L 213.9,150.2 c -1.2,1.2 -2.8,1.9 -4.6,1.9 -1.7,0 -3.3,-0.7 -4.6,-1.9 L 176,121.5 c -1.2,-1.2 -1.9,-2.8 -1.9,-4.6 0,-1.7 0.7,-3.3 1.9,-4.6 l 59.2,-59.199994 c 1.2,-1.2 2.8,-1.9 4.6,-1.9 1.7,0 3.3,0.7 4.6,1.9 l 28.7,28.7 c 2.5,2.6 2.5,6.7 0,9.2 z"
       id="path4"
       style="fill:#000000;fill-opacity:1;stroke:none" /><g
       id="g16"
       style="fill:#000000;fill-opacity:1;stroke:none"
       transform="translate(-56.8,-31.399994)"><g
         id="g10"
         style="fill:#000000;fill-opacity:1;stroke:none"><rect
           x="254.3"
           y="149.89999"
           transform="matrix(0.7071,-0.7071,0.7071,0.7071,-31.1273,227.5646)"
           class="st0"
           width="9.6000004"
           height="2.9000001"
           id="rect6"
           style="fill:#000000;fill-opacity:1;stroke:none" /><rect
           x="258.29999"
           y="153.89999"
           transform="matrix(0.7071,-0.7071,0.7071,0.7071,-32.7709,231.5325)"
           class="st0"
           width="9.6000004"
           height="2.9000001"
           id="rect8"
           style="fill:#000000;fill-opacity:1;stroke:none" /></g><polygon
         class="st0"
         points="273.5,160.1 271.7,161.9 270.4,157 264.7,162.6 269.6,163.9 267.8,165.7 273.8,167.3 271.8,169.3 272.9,170.4 278.2,165.1 277.1,164.1 275.1,166.1 "
         id="polygon12"
         style="fill:#000000;fill-opacity:1;stroke:none" /><polygon
         class="st0"
         points="248.4,139.4 250.4,137.4 249.3,136.3 244.1,141.5 245.2,142.6 247.1,140.6 248.8,146.6 250.6,144.8 251.9,149.7 257.5,144.1 252.6,142.8 254.4,141 "
         id="polygon14"
         style="fill:#000000;fill-opacity:1;stroke:none" /></g><path
       class="st0"
       d="m 247,96.400006 c 3.2,-6.5 1.8,-14.4 0.6,-18.6 -0.2,-0.6 -0.6,-1.1 -1.2,-1.2 -0.6,-0.2 -1.2,0 -1.7,0.4 l -13.3,13.3 c -0.5,-1.1 -1.3,-2.1 -2.3,-2.8 -2.4,-1.7 -5.8,-1.7 -8.2,0.1 -1.8,1.3 -2.8,3.4 -2.8,5.5 0,1.9 0.7,3.6 2,4.9 0.2,0.2 0.5,0.4 0.7,0.6 2.7,2.100004 6.7,1.800004 9.2,-0.7 l 12.1,-12.1 c 3.6,3.6 3.7,10 3.7,10.2 l 0.4,1.3 z"
       id="path18"
       style="fill:#000000;fill-opacity:1;stroke:none" /><path
       class="st0"
       d="M 201,92.900006 233.3,125.2 c 0.7,0.7 0.7,1.7 0,2.4 l -0.1,0.1 c -0.7,0.7 -1.7,0.7 -2.4,0 L 198.5,95.400006 c -0.7,-0.7 -0.7,-1.7 0,-2.4 l 0.1,-0.1 c 0.7,-0.7 1.8,-0.7 2.4,0 z"
       id="path20"
       style="fill:#000000;fill-opacity:1;stroke:none" /><g
       id="g26"
       style="fill:#000000;fill-opacity:1;stroke:none"
       transform="translate(-56.8,-31.399994)"><path
         class="st0"
         d="m 344.9,103.5 c -0.3,-8.9 -4,-17.3 -10.3,-23.6 -6.3,-6.3 -14.7,-10 -23.6,-10.3 -0.9,0 -1.7,0.5 -2.1,1.3 -0.4,0.8 -0.2,1.8 0.5,2.4 0.4,0.4 0.9,0.6 1.5,0.6 7.8,0.3 15.2,3.5 20.7,9 5.5,5.5 8.7,12.9 9,20.7 0,0.6 0.2,1.1 0.6,1.5 0.6,0.6 1.6,0.8 2.4,0.5 0.8,-0.4 1.3,-1.2 1.3,-2.1 z"
         id="path22"
         style="fill:#000000;fill-opacity:1;stroke:none" /><path
         class="st0"
         d="m 363,101.3 c -0.3,-13.2 -5.6,-25.6 -14.9,-35 -9.3,-9.3 -21.7,-14.6 -35,-14.9 -1,0 -1.8,0.5 -2.2,1.4 -0.4,0.9 -0.2,1.9 0.5,2.6 0.4,0.4 1,0.7 1.6,0.7 12,0.3 23.2,5.1 31.7,13.5 8.4,8.4 13.2,19.7 13.5,31.7 0,0.6 0.3,1.2 0.7,1.6 0.7,0.7 1.7,0.9 2.6,0.5 1,-0.3 1.6,-1.1 1.5,-2.1 z"
         id="path24"
         style="fill:#000000;fill-opacity:1;stroke:none" /></g><g
       id="g68"
       style="fill:#000000;fill-opacity:1;stroke:none;stroke-width:0.1;stroke-miterlimit:4;stroke-dasharray:none"
       transform="translate(-56.8,-31.399994)"><path
         id="path30"
         d="m 89.6,225.8 c 0,8.6 -5.5,16.8 -16.4,16.8 -10.9,0 -16.4,-8.3 -16.4,-16.9 0,-8.7 5.4,-16.7 16.4,-16.7 11,0 16.4,8 16.4,16.8 z m -30.4,-0.1 c 0,7.3 4.7,14.5 13.9,14.5 9.3,0 14,-7.2 14,-14.5 0,-7.5 -4.6,-14.5 -14,-14.5 -9.3,0.1 -13.9,6.9 -13.9,14.5 z"
         style="fill:#000000;fill-opacity:1;stroke:none;stroke-width:0.1;stroke-miterlimit:4;stroke-dasharray:none" /><path
         id="path32"
         d="M 95.1,251.6 V 219 h 2.2 v 5.4 c 1.8,-3.5 5.5,-5.8 9.9,-5.8 6.2,0.2 11.2,4.4 11.2,11.8 0,7.7 -5.2,11.9 -11.7,11.9 -3.9,0 -7.5,-1.9 -9.5,-5.7 v 14.9 h -2.1 z m 21.1,-21.1 c 0,-6.5 -4.2,-9.6 -9.4,-9.6 -5.3,0 -9.3,4 -9.3,9.7 0,5.7 4,9.7 9.3,9.7 5.2,-0.1 9.4,-3.3 9.4,-9.8 z"
         style="fill:#000000;fill-opacity:1;stroke:none;stroke-width:0.1;stroke-miterlimit:4;stroke-dasharray:none" /><path
         id="path34"
         d="m 122.7,230.5 c 0,-6.9 5.2,-11.9 11.7,-11.9 6.5,0 12.2,4 11.3,12.9 H 125 c 0.5,5.4 4.6,8.5 9.3,8.5 3,0 6.6,-1.2 8.3,-3.5 l 1.6,1.3 c -2.2,2.9 -6.2,4.4 -9.9,4.4 -6.4,0.1 -11.6,-4.4 -11.6,-11.7 z m 21,-0.9 c 0,-5.7 -3.8,-8.8 -9.3,-8.8 -4.7,0 -8.8,3.2 -9.3,8.8 z"
         style="fill:#000000;fill-opacity:1;stroke:none;stroke-width:0.1;stroke-miterlimit:4;stroke-dasharray:none" /><path
         id="path36"
         d="m 153.9,219 v 4.1 c 1.8,-3.2 5,-4.5 8.2,-4.5 6.1,0 10.4,3.8 10.4,10.1 V 242 h -2.3 v -13.2 c 0,-5.2 -3.2,-8 -8.2,-7.9 -4.7,0 -8,3.6 -8,8.4 V 242 h -2.3 v -23 z"
         style="fill:#000000;fill-opacity:1;stroke:none;stroke-width:0.1;stroke-miterlimit:4;stroke-dasharray:none" /><path
         id="path38"
         d="m 220,213.1 -12.5,19.1 h -0.8 L 194.1,213.1 V 242 h -2.5 v -32.5 c 1.2,0 1.8,0 3,0 l 12.5,19 12.3,-19 h 3.1 V 242 H 220 Z"
         style="fill:#000000;fill-opacity:1;stroke:none;stroke-width:0.1;stroke-miterlimit:4;stroke-dasharray:none" /><path
         id="path40"
         d="m 247.7,242 v -4.1 c -1.8,3.2 -5,4.5 -8.2,4.5 -6.1,0 -10.4,-3.8 -10.4,-10.1 V 219 h 2.3 v 13.2 c 0,5.2 3.2,8 8.2,7.9 4.7,0 8,-3.6 8,-8.4 V 219 h 2.3 v 23 z"
         style="fill:#000000;fill-opacity:1;stroke:none;stroke-width:0.1;stroke-miterlimit:4;stroke-dasharray:none" /><path
         id="path42"
         d="m 271.7,223.2 c -2.3,-2 -4.6,-2.4 -7.2,-2.4 -3.6,0 -7,1.3 -6.9,4.2 0.1,3.1 4.1,3.7 7,4.2 4.1,0.7 9.7,1.4 9.5,6.7 -0.1,5.1 -5.4,6.4 -9.4,6.4 -4,0 -8,-1.5 -10,-4.6 l 1.7,-1.5 c 1.9,2.7 5.3,3.9 8.4,3.9 2.8,0 7,-0.7 7.2,-4.4 0.1,-3.3 -3.7,-4 -7.5,-4.6 -4.5,-0.7 -8.9,-1.6 -8.9,-6.2 0,-4.5 4.5,-6.5 9.1,-6.4 3.3,0 6.3,0.9 8.6,3.1 z"
         style="fill:#000000;fill-opacity:1;stroke:none;stroke-width:0.1;stroke-miterlimit:4;stroke-dasharray:none" /><path
         id="path44"
         d="m 282.1,211.5 c 0,2.4 -3.7,2.4 -3.7,0 0.1,-2.4 3.7,-2.4 3.7,0 z m -3,7.4 V 242 h 2.3 v -23.1 z"
         style="fill:#000000;fill-opacity:1;stroke:none;stroke-width:0.1;stroke-miterlimit:4;stroke-dasharray:none" /><path
         id="path46"
         d="m 306.7,238.8 c -2.3,2.3 -5.3,3.4 -8.4,3.4 -6.5,0 -11.8,-4.5 -11.8,-11.7 0,-7.3 5.2,-11.7 11.8,-11.7 3,0 6,1.2 8.4,3.4 l -1.5,1.4 c -1.9,-1.9 -4.4,-2.7 -6.9,-2.7 -5.2,0 -9.6,3.4 -9.6,9.6 0,6.2 4.4,9.6 9.6,9.6 2.5,0 5,-1 6.8,-2.8 z"
         style="fill:#000000;fill-opacity:1;stroke:none;stroke-width:0.1;stroke-miterlimit:4;stroke-dasharray:none" /><path
         id="path48"
         d="m 351.5,237.5 c -3.3,3.3 -7.6,4.9 -11.9,4.9 -11,0 -16.7,-7.7 -16.7,-16.5 -0.1,-8.7 5.6,-16.8 16.7,-16.8 4.3,0 8.6,1.6 11.9,4.9 l -1.7,1.5 c -2.8,-2.8 -6.5,-4.1 -10.1,-4.1 -9.5,0 -14.4,6.7 -14.3,14.5 0.1,7.6 4.9,14.2 14.3,14.2 3.7,0 7.4,-1.4 10.2,-4.1 z"
         style="fill:#000000;fill-opacity:1;stroke:none;stroke-width:0.1;stroke-miterlimit:4;stroke-dasharray:none" /><path
         id="path50"
         d="m 355.4,230.6 c 0,-7.3 5.2,-11.9 11.7,-11.9 6.5,0 11.7,4.6 11.7,11.9 0,7.3 -5.2,11.8 -11.7,11.8 -6.5,-0.1 -11.7,-4.5 -11.7,-11.8 z m 21.1,0 c 0,-6 -4.2,-9.8 -9.4,-9.8 -5.2,0 -9.4,3.9 -9.4,9.8 0,6 4.2,9.5 9.4,9.5 5.1,0 9.4,-3.6 9.4,-9.5 z"
         style="fill:#000000;fill-opacity:1;stroke:none;stroke-width:0.1;stroke-miterlimit:4;stroke-dasharray:none" /><path
         id="path52"
         d="m 386.2,219 v 4.1 c 1.8,-3.2 5,-4.5 8.2,-4.5 6.1,0 10.4,3.8 10.4,10.1 V 242 h -2.3 v -13.2 c 0,-5.2 -3.2,-8 -8.2,-7.9 -4.7,0 -8,3.6 -8,8.4 V 242 H 384 v -23 z"
         style="fill:#000000;fill-opacity:1;stroke:none;stroke-width:0.1;stroke-miterlimit:4;stroke-dasharray:none" /><path
         id="path54"
         d="m 415,212.1 v 6.9 h 7.8 v 1.9 H 415 v 14 c 0,3.1 0.7,5.3 4.2,5.3 1.1,0 2.4,-0.4 3.5,-0.9 l 0.8,1.9 c -1.4,0.7 -2.9,1.2 -4.3,1.2 -4.9,0 -6.5,-2.9 -6.5,-7.4 v -14 h -4.9 v -2 h 4.9 v -6.7 z"
         style="fill:#000000;fill-opacity:1;stroke:none;stroke-width:0.1;stroke-miterlimit:4;stroke-dasharray:none" /><path
         id="path56"
         d="m 430.2,219 0.1,4.1 c 1.4,-3.1 4.7,-4.3 7.6,-4.3 1.7,0 3.4,0.4 4.9,1.3 l -1,1.9 c -1.2,-0.7 -2.6,-1.1 -3.9,-1.1 -4.3,0 -7.6,3.5 -7.6,7.7 V 242 H 428 v -23 z"
         style="fill:#000000;fill-opacity:1;stroke:none;stroke-width:0.1;stroke-miterlimit:4;stroke-dasharray:none" /><path
         id="path58"
         d="m 445.2,230.6 c 0,-7.3 5.2,-11.9 11.7,-11.9 6.5,0 11.7,4.6 11.7,11.9 0,7.3 -5.2,11.8 -11.7,11.8 -6.5,-0.1 -11.7,-4.5 -11.7,-11.8 z m 21.1,0 c 0,-6 -4.2,-9.8 -9.4,-9.8 -5.2,0 -9.4,3.9 -9.4,9.8 0,6 4.2,9.5 9.4,9.5 5.1,0 9.4,-3.6 9.4,-9.5 z"
         style="fill:#000000;fill-opacity:1;stroke:none;stroke-width:0.1;stroke-miterlimit:4;stroke-dasharray:none" /><path
         id="path60"
         d="M 476,209.4 V 242 h -2.3 v -32.5 h 2.3 z"
         style="fill:#000000;fill-opacity:1;stroke:none;stroke-width:0.1;stroke-miterlimit:4;stroke-dasharray:none" /><path
         id="path62"
         d="M 484.7,209.4 V 242 h -2.3 v -32.5 h 2.3 z"
         style="fill:#000000;fill-opacity:1;stroke:none;stroke-width:0.1;stroke-miterlimit:4;stroke-dasharray:none" /><path
         id="path64"
         d="m 489.7,230.5 c 0,-6.9 5.2,-11.9 11.7,-11.9 6.5,0 12.2,4 11.3,12.9 H 492 c 0.5,5.4 4.6,8.5 9.3,8.5 3,0 6.6,-1.2 8.3,-3.5 l 1.6,1.3 c -2.2,2.9 -6.2,4.4 -9.9,4.4 -6.3,0.1 -11.6,-4.4 -11.6,-11.7 z m 21,-0.9 c 0,-5.7 -3.8,-8.8 -9.3,-8.8 -4.7,0 -8.8,3.2 -9.3,8.8 z"
         style="fill:#000000;fill-opacity:1;stroke:none;stroke-width:0.1;stroke-miterlimit:4;stroke-dasharray:none" /><path
         id="path66"
         d="m 520.8,219 0.1,4.1 c 1.4,-3.1 4.7,-4.3 7.6,-4.3 1.7,0 3.4,0.4 4.9,1.3 l -1,1.9 c -1.2,-0.7 -2.6,-1.1 -3.9,-1.1 -4.3,0 -7.6,3.5 -7.6,7.7 V 242 h -2.3 v -23 z"
         style="fill:#000000;fill-opacity:1;stroke:none;stroke-width:0.1;stroke-miterlimit:4;stroke-dasharray:none" /></g></g></svg>