<?xml version="1.0" encoding="UTF-8" standalone="no"?>
<svg
   height="240.2"
   width="500"
   xml:space="preserve"
   viewBox="0 0 500.00001 240.19999"
   y="0px"
   x="0px"
   id="Layer_1"
   version="1.1"
   sodipodi:docname="drawer_header.svg"
   inkscape:version="1.1.2 (0a00cf5339, 2022-02-04)"
   inkscape:export-filename="/work/android/solutions/onkyoControl/onpc/app/src/main/res/drawable-nodpi/drawer_header.png"
   inkscape:export-xdpi="95.920067"
   inkscape:export-ydpi="95.920067"
   xmlns:inkscape="http://www.inkscape.org/namespaces/inkscape"
   xmlns:sodipodi="http://sodipodi.sourceforge.net/DTD/sodipodi-0.dtd"
   xmlns="http://www.w3.org/2000/svg"
   xmlns:svg="http://www.w3.org/2000/svg"
   xmlns:rdf="http://www.w3.org/1999/02/22-rdf-syntax-ns#"
   xmlns:cc="http://creativecommons.org/ns#"
   xmlns:dc="http://purl.org/dc/elements/1.1/"><sodipodi:namedview
   pagecolor="#ffffff"
   bordercolor="#666666"
   borderopacity="1"
   objecttolerance="10"
   gridtolerance="10"
   guidetolerance="10"
   inkscape:pageopacity="0"
   inkscape:pageshadow="2"
   inkscape:window-width="1920"
   inkscape:window-height="997"
   id="namedview23"
   showgrid="false"
   inkscape:zoom="0.73"
   inkscape:cx="253.42466"
   inkscape:cy="121.23288"
   inkscape:window-x="0"
   inkscape:window-y="23"
   inkscape:window-maximized="1"
   inkscape:current-layer="Layer_1"
   inkscape:pagecheckerboard="0" /><metadata
   id="metadata77"><rdf:RDF><cc:Work
       rdf:about=""><dc:format>image/svg+xml</dc:format><dc:type
         rdf:resource="http://purl.org/dc/dcmitype/StillImage" /><dc:title /></cc:Work></rdf:RDF></metadata><defs
   id="defs75" /><style
   id="style2"
   type="text/css">
	.st0{fill:#0096FF;}
</style><g
   id="g920"
   transform="translate(-0.0054131,-3.9999949)"><path
     class="st0"
     d="m 287.5,69.200007 -28.7,-28.7 c -4,-4 -10.5,-4 -14.5,0 l -59.2,59.100004 c -1.9,1.899989 -3,4.499989 -3,7.299989 0,2.7 1.1,5.3 3,7.3 l 28.7,28.7 c 1.9,1.9 4.5,3 7.3,3 2.7,0 5.3,-1.1 7.3,-3 l 59.2,-59.199993 c 3.9,-4 3.9,-10.5 -0.1,-14.5 z m -2.7,11.8 L 225.6,140.2 c -1.2,1.2 -2.8,1.9 -4.6,1.9 -1.7,0 -3.3,-0.7 -4.6,-1.9 l -28.7,-28.7 c -1.2,-1.2 -1.9,-2.8 -1.9,-4.6 0,-1.7 0.7,-3.3 1.9,-4.6 l 59.2,-59.199993 c 1.2,-1.2 2.8,-1.9 4.6,-1.9 1.7,0 3.3,0.7 4.6,1.9 l 28.7,28.7 c 2.5,2.6 2.5,6.7 0,9.2 z"
     id="path4"
     style="fill:#000000;fill-opacity:1;stroke:none" /><g
     id="g16"
     style="fill:#000000;fill-opacity:1;stroke:none"
     transform="translate(-45.1,-41.399993)"><g
       id="g10"
       style="fill:#000000;fill-opacity:1;stroke:none"><rect
         x="254.3"
         y="149.89999"
         transform="matrix(0.7071,-0.7071,0.7071,0.7071,-31.1273,227.5646)"
         class="st0"
         width="9.6000004"
         height="2.9000001"
         id="rect6"
         style="fill:#000000;fill-opacity:1;stroke:none" /><rect
         x="258.29999"
         y="153.89999"
         transform="matrix(0.7071,-0.7071,0.7071,0.7071,-32.7709,231.5325)"
         class="st0"
         width="9.6000004"
         height="2.9000001"
         id="rect8"
         style="fill:#000000;fill-opacity:1;stroke:none" /></g><polygon
       class="st0"
       points="277.1,164.1 275.1,166.1 273.5,160.1 271.7,161.9 270.4,157 264.7,162.6 269.6,163.9 267.8,165.7 273.8,167.3 271.8,169.3 272.9,170.4 278.2,165.1 "
       id="polygon12"
       style="fill:#000000;fill-opacity:1;stroke:none" /><polygon
       class="st0"
       points="252.6,142.8 254.4,141 248.4,139.4 250.4,137.4 249.3,136.3 244.1,141.5 245.2,142.6 247.1,140.6 248.8,146.6 250.6,144.8 251.9,149.7 257.5,144.1 "
       id="polygon14"
       style="fill:#000000;fill-opacity:1;stroke:none" /></g><path
     class="st0"
     d="m 258.7,86.400007 c 3.2,-6.5 1.8,-14.4 0.6,-18.6 -0.2,-0.6 -0.6,-1.1 -1.2,-1.2 -0.6,-0.2 -1.2,0 -1.7,0.4 l -13.3,13.3 c -0.5,-1.1 -1.3,-2.1 -2.3,-2.8 -2.4,-1.7 -5.8,-1.7 -8.2,0.1 -1.8,1.3 -2.8,3.4 -2.8,5.5 0,1.9 0.7,3.6 2,4.9 0.2,0.2 0.5,0.4 0.7,0.6 2.7,2.100004 6.7,1.800004 9.2,-0.7 l 12.1,-12.1 c 3.6,3.6 3.7,10 3.7,10.2 l 0.4,1.3 z"
     id="path18"
     style="fill:#000000;fill-opacity:1;stroke:none" /><path
     class="st0"
     d="M 212.7,82.900007 245,115.2 c 0.7,0.7 0.7,1.7 0,2.4 l -0.1,0.1 c -0.7,0.7 -1.7,0.7 -2.4,0 L 210.2,85.400007 c -0.7,-0.7 -0.7,-1.7 0,-2.4 l 0.1,-0.1 c 0.7,-0.7 1.8,-0.7 2.4,0 z"
     id="path20"
     style="fill:#000000;fill-opacity:1;stroke:none" /><g
     id="g26"
     style="fill:#000000;fill-opacity:1;stroke:none"
     transform="translate(-45.1,-41.399993)"><path
       class="st0"
       d="m 344.9,103.5 c -0.3,-8.9 -4,-17.3 -10.3,-23.6 -6.3,-6.3 -14.7,-10 -23.6,-10.3 -0.9,0 -1.7,0.5 -2.1,1.3 -0.4,0.8 -0.2,1.8 0.5,2.4 0.4,0.4 0.9,0.6 1.5,0.6 7.8,0.3 15.2,3.5 20.7,9 5.5,5.5 8.7,12.9 9,20.7 0,0.6 0.2,1.1 0.6,1.5 0.6,0.6 1.6,0.8 2.4,0.5 0.8,-0.4 1.3,-1.2 1.3,-2.1 z"
       id="path22"
       style="fill:#000000;fill-opacity:1;stroke:none" /><path
       class="st0"
       d="m 363,101.3 c -0.3,-13.2 -5.6,-25.6 -14.9,-35 -9.3,-9.3 -21.7,-14.6 -35,-14.9 -1,0 -1.8,0.5 -2.2,1.4 -0.4,0.9 -0.2,1.9 0.5,2.6 0.4,0.4 1,0.7 1.6,0.7 12,0.3 23.2,5.1 31.7,13.5 8.4,8.4 13.2,19.7 13.5,31.7 0,0.6 0.3,1.2 0.7,1.6 0.7,0.7 1.7,0.9 2.6,0.5 1,-0.3 1.6,-1.1 1.5,-2.1 z"
       id="path24"
       style="fill:#000000;fill-opacity:1;stroke:none" /></g></g><text
   xml:space="preserve"
   style="font-style:normal;font-weight:normal;font-size:96px;line-height:1.25;font-family:sans-serif;letter-spacing:0px;word-spacing:0px;fill:#000000;fill-opacity:0.726891;stroke:#000000;stroke-opacity:1"
   x="77.050812"
   y="180.6954"
   id="text880"><tspan
     x="77.050812"
     y="180.6954"
     style="font-style:normal;font-variant:normal;font-weight:normal;font-stretch:normal;font-size:42.6667px;font-family:'TeX Gyre Adventor';-inkscape-font-specification:'TeX Gyre Adventor';fill:#000000;fill-opacity:0.726891;stroke:#000000;stroke-opacity:1"
     id="tspan886">Enhanced Music</tspan></text>
<text
   xml:space="preserve"
   style="font-style:normal;font-weight:normal;font-size:96px;line-height:1.25;font-family:sans-serif;letter-spacing:0px;word-spacing:0px;fill:#000000;fill-opacity:0.726891;stroke:#000000;stroke-opacity:1"
   x="108.32558"
   y="228.04549"
   id="text880-6"><tspan
     x="108.32558"
     y="228.04549"
     style="font-style:normal;font-variant:normal;font-weight:normal;font-stretch:normal;font-size:42.6667px;font-family:'TeX Gyre Adventor';-inkscape-font-specification:'TeX Gyre Adventor';fill:#000000;fill-opacity:0.726891;stroke:#000000;stroke-opacity:1"
     id="tspan886-2">Controller Lite </tspan></text>
</svg>
