<?xml version="1.0" encoding="UTF-8" standalone="no"?>
<svg
   xmlns:dc="http://purl.org/dc/elements/1.1/"
   xmlns:cc="http://creativecommons.org/ns#"
   xmlns:rdf="http://www.w3.org/1999/02/22-rdf-syntax-ns#"
   xmlns:svg="http://www.w3.org/2000/svg"
   xmlns="http://www.w3.org/2000/svg"
   id="svg1185"
   xml:space="preserve"
   enable-background="new 0 0 1000 1000"
   viewBox="0 0 1000 1000"
   y="0px"
   x="0px"
   version="1.1"><defs
     id="defs1189" /><metadata
     id="metadata1141"> Svg Vector Icons : http://www.onlinewebfonts.com/icon <rdf:RDF><cc:Work
     rdf:about=""><dc:format>image/svg+xml</dc:format><dc:type
       rdf:resource="http://purl.org/dc/dcmitype/StillImage" /><dc:title></dc:title></cc:Work></rdf:RDF></metadata><g
     id="g1151"><circle
       style="fill:#000000;fill-opacity:0.627451"
       cx="418.20001"
       cy="472.39999"
       r="31.700001"
       id="circle1143" /><path
       style="fill:#000000;fill-opacity:0.78431374"
       d="m 418.2,315.7 c -86.4,0 -156.7,70.3 -156.7,156.7 0,86.4 70.3,156.7 156.7,156.7 86.4,0 156.7,-70.3 156.7,-156.7 0,-86.4 -70.3,-156.7 -156.7,-156.7 z m 0,275.6 c -65.7,0 -118.9,-53.2 -118.9,-118.9 0,-65.7 53.2,-118.9 118.9,-118.9 65.7,0 118.9,53.2 118.9,118.9 0,65.7 -53.2,118.9 -118.9,118.9 z"
       id="path1145" /><path
       style="fill:#000000;fill-opacity:0.78431374"
       d="m 986.7,669 c -25.6,5.7 -67.4,-32.4 -86,-81.4 -18.6,-49 -32.9,-164.9 -124.4,-144.5 -32.4,7.2 -53.4,15.8 -66.9,23.7 -18.1,10.6 -21.2,43.8 -16.7,64.3 l 29.6,133.1 c 4.6,20.5 -5.2,32.4 -22.4,31.7 -10.2,-0.4 -20.6,0.4 -31,2.7 -64.7,14.4 -105.5,78.5 -91,143.2 14.4,64.7 78.5,105.4 143.2,91 64.7,-14.4 105.5,-78.5 91.1,-143.2 -0.4,-1.7 -0.8,-3.3 -1.3,-4.9 -0.8,-2.7 -5.1,-21.5 -9.6,-42 -8.5,-38.4 -21.8,-98.2 -30.3,-136.7 -4.6,-20.5 11.1,-34.1 18.6,-14.6 8.3,21.6 14.5,57.1 42,99.2 50.3,77.3 180.7,-27.3 155.1,-21.6 z"
       id="path1147" /><path
       style="fill:#000000;fill-opacity:0.70588237;stroke:none"
       d="m 661.4,665.2 c 8.3,-1.9 16.8,-3 25.3,-3.5 L 659.3,538.5 c -6.5,-29.1 -3.1,-80.1 32.7,-101.2 19.1,-11.2 45,-20.5 76.9,-27.6 9.5,-2.1 18.9,-3.2 27.8,-3.2 9,0 17.1,1.2 24.8,3 C 791.3,213.9 622.2,64.2 418.2,64.2 192.8,64.2 10,247 10,472.4 c 0,225.4 182.8,408.2 408.2,408.2 45.1,0 88.4,-7.4 129,-20.9 -1,-3.4 -2,-6.9 -2.8,-10.5 -18.5,-82.9 34,-165.5 117,-184 z M 231.6,472.4 c 0,-102.9 83.7,-186.6 186.6,-186.6 102.9,0 186.6,83.7 186.6,186.6 C 604.8,575.3 521.1,659 418.2,659 315.3,659 231.6,575.3 231.6,472.4 Z"
       id="path1149" /></g><g
     id="g1153" /><g
     id="g1155" /><g
     id="g1157" /><g
     id="g1159" /><g
     id="g1161" /><g
     id="g1163" /><g
     id="g1165" /><g
     id="g1167" /><g
     id="g1169" /><g
     id="g1171" /><g
     id="g1173" /><g
     id="g1175" /><g
     id="g1177" /><g
     id="g1179" /><g
     id="g1181" /></svg>