<svg version="1.1" viewBox="0 0 1024 500" xml:space="preserve" xmlns="http://www.w3.org/2000/svg"><style type="text/css">
	.st0{fill:#fff;}
</style>
<rect width="1024" height="500" fill="#07d"/>
	<g transform="matrix(1.5 0 0 1.5 -256 -73.6)"><path class="st0" d="m554 142-37.2-37.2c-5.19-5.19-13.6-5.19-18.8 0l-76.7 76.6c-2.46 2.46-3.89 5.83-3.89 9.46 0 3.5 1.43 6.87 3.89 9.46l37.2 37.2c2.46 2.46 5.83 3.89 9.46 3.89 3.5 0 6.87-1.43 9.46-3.89l76.7-76.7c5.06-5.19 5.06-13.6-0.13-18.8zm-3.5 15.3-76.7 76.7c-1.56 1.56-3.63 2.46-5.96 2.46-2.2 0-4.28-0.907-5.96-2.46l-37.2-37.2c-1.56-1.56-2.46-3.63-2.46-5.96 0-2.2 0.907-4.28 2.46-5.96l76.7-76.7c1.56-1.56 3.63-2.46 5.96-2.46 2.2 0 4.28 0.907 5.96 2.46l37.2 37.2c3.24 3.37 3.24 8.69 0 11.9z"/><g transform="matrix(1.3 0 0 1.3 123 -.922)"><rect class="st0" transform="matrix(.707 -.707 .707 .707 -31.1 228)" x="254" y="150" width="9.6" height="2.9"/><rect class="st0" transform="matrix(.707 -.707 .707 .707 -32.8 232)" x="258" y="154" width="9.6" height="2.9"/><polygon class="st0" points="272 169 273 170 278 165 277 164 275 166 274 160 272 162 270 157 265 163 270 164 268 166 274 167"/><polygon class="st0" points="251 145 252 150 258 144 253 143 254 141 248 139 250 137 249 136 244 142 245 143 247 141 249 147"/></g><path class="st0" d="m517 165c4.15-8.43 2.33-18.7 0.778-24.1-0.259-0.778-0.778-1.43-1.56-1.56-0.778-0.259-1.56 0-2.2 0.519l-17.2 17.2c-0.648-1.43-1.69-2.72-2.98-3.63-3.11-2.2-7.52-2.2-10.6 0.13-2.33 1.69-3.63 4.41-3.63 7.13 0 2.46 0.907 4.67 2.59 6.35 0.259 0.259 0.648 0.519 0.907 0.778 3.5 2.72 8.69 2.33 11.9-0.907l15.7-15.7c4.67 4.67 4.8 13 4.8 13.2l0.519 1.69z"/><path class="st0" d="m457 160 41.9 41.9c0.907 0.907 0.907 2.2 0 3.11l-0.13 0.13c-0.907 0.907-2.2 0.907-3.11 0l-41.9-41.9c-0.907-0.907-0.907-2.2 0-3.11l0.13-0.13c0.907-0.907 2.33-0.907 3.11 0z"/><g transform="matrix(1.3 0 0 1.3 123 -.922)"><path class="st0" d="m345 104c-0.3-8.9-4-17.3-10.3-23.6s-14.7-10-23.6-10.3c-0.9 0-1.7 0.5-2.1 1.3s-0.2 1.8 0.5 2.4c0.4 0.4 0.9 0.6 1.5 0.6 7.8 0.3 15.2 3.5 20.7 9s8.7 12.9 9 20.7c0 0.6 0.2 1.1 0.6 1.5 0.6 0.6 1.6 0.8 2.4 0.5 0.8-0.4 1.3-1.2 1.3-2.1z"/><path class="st0" d="m363 101c-0.3-13.2-5.6-25.6-14.9-35-9.3-9.3-21.7-14.6-35-14.9-1 0-1.8 0.5-2.2 1.4s-0.2 1.9 0.5 2.6c0.4 0.4 1 0.7 1.6 0.7 12 0.3 23.2 5.1 31.7 13.5 8.4 8.4 13.2 19.7 13.5 31.7 0 0.6 0.3 1.2 0.7 1.6 0.7 0.7 1.7 0.9 2.6 0.5 1-0.3 1.6-1.1 1.5-2.1z"/></g><text x="227.46651" y="292.17517" fill="#ffffff" fill-opacity=".725" font-family="sans-serif" font-size="124px" letter-spacing="0px" stroke="#ffffff" stroke-width="1.3" word-spacing="0px" style="line-height:1.25" xml:space="preserve"><tspan x="227.46651" y="292.17517" fill="#ffffff" fill-opacity=".725" font-family="'TeX Gyre Adventor'" font-size="55.3px" stroke="#ffffff" stroke-width="1.3">Enhanced Controller</tspan></text>
<text x="377.32187" y="353.55704" fill="#ffffff" fill-opacity=".725" font-family="sans-serif" font-size="124px" letter-spacing="0px" stroke="#ffffff" stroke-width="1.3" word-spacing="0px" style="line-height:1.25" xml:space="preserve"><tspan x="377.32187" y="353.55704" fill="#ffffff" fill-opacity=".725" font-family="'TeX Gyre Adventor'" font-size="55.3px" stroke="#ffffff" stroke-width="1.3">for Onkyo</tspan></text>
</g>
</svg>
