<?xml version="1.0" encoding="UTF-8" standalone="no"?>
<svg
   version="1.1"
   viewBox="0 0 1024 500"
   xml:space="preserve"
   id="svg38"
   sodipodi:docname="featureGraphic.svg"
   inkscape:version="1.1.2 (0a00cf5339, 2022-02-04)"
   inkscape:export-filename="/work/android/solutions/onkyoControl/onpc/images/featureGraphic.png"
   inkscape:export-xdpi="96"
   inkscape:export-ydpi="96"
   xmlns:inkscape="http://www.inkscape.org/namespaces/inkscape"
   xmlns:sodipodi="http://sodipodi.sourceforge.net/DTD/sodipodi-0.dtd"
   xmlns="http://www.w3.org/2000/svg"
   xmlns:svg="http://www.w3.org/2000/svg"
   xmlns:rdf="http://www.w3.org/1999/02/22-rdf-syntax-ns#"
   xmlns:cc="http://creativecommons.org/ns#"
   xmlns:dc="http://purl.org/dc/elements/1.1/"><metadata
   id="metadata44"><rdf:RDF><cc:Work
       rdf:about=""><dc:format>image/svg+xml</dc:format><dc:type
         rdf:resource="http://purl.org/dc/dcmitype/StillImage" /></cc:Work></rdf:RDF></metadata><defs
   id="defs42" /><sodipodi:namedview
   pagecolor="#ffffff"
   bordercolor="#666666"
   borderopacity="1"
   objecttolerance="10"
   gridtolerance="10"
   guidetolerance="10"
   inkscape:pageopacity="0"
   inkscape:pageshadow="2"
   inkscape:window-width="1920"
   inkscape:window-height="997"
   id="namedview40"
   showgrid="false"
   inkscape:zoom="0.35644531"
   inkscape:cx="516.20822"
   inkscape:cy="248.28493"
   inkscape:window-x="0"
   inkscape:window-y="23"
   inkscape:window-maximized="1"
   inkscape:current-layer="svg38"
   inkscape:pagecheckerboard="0" /><style
   type="text/css"
   id="style2">
	.st0{fill:#fff;}
</style><rect
   width="1024"
   height="500"
   fill="#07d"
   id="rect4" /><g
   id="g879"
   transform="translate(8.7569445)"><path
     class="st0"
     d="M 575,139.4 519.2,83.6 c -7.785,-7.785 -20.4,-7.785 -28.2,0 L 375.95,198.5 c -3.69,3.69 -5.835,8.745 -5.835,14.19 0,5.25 2.145,10.305 5.835,14.19 l 55.8,55.8 c 3.69,3.69 8.745,5.835 14.19,5.835 5.25,0 10.305,-2.145 14.19,-5.835 L 575.18,167.63 c 7.59,-7.785 7.59,-20.4 -0.195,-28.2 z M 569.75,162.35 454.7,277.4 c -2.34,2.34 -5.445,3.69 -8.94,3.69 -3.3,0 -6.42,-1.3605 -8.94,-3.69 l -55.8,-55.8 c -2.34,-2.34 -3.69,-5.445 -3.69,-8.94 0,-3.3 1.3605,-6.42 3.69,-8.94 L 496.07,88.67 c 2.34,-2.34 5.445,-3.69 8.94,-3.69 3.3,0 6.42,1.3605 8.94,3.69 l 55.8,55.8 c 4.86,5.055 4.86,13.035 0,17.85 z"
     id="path6"
     inkscape:connector-curvature="0"
     style="fill:#ffffff;stroke-width:1.5" /><g
     transform="matrix(1.95,0,0,1.95,-71.5,-74.983)"
     id="g16"><rect
       class="st0"
       transform="matrix(0.707,-0.707,0.707,0.707,-31.1,228)"
       x="254"
       y="150"
       width="9.6000004"
       height="2.9000001"
       id="rect8"
       style="fill:#ffffff" /><rect
       class="st0"
       transform="matrix(0.707,-0.707,0.707,0.707,-32.8,232)"
       x="258"
       y="154"
       width="9.6000004"
       height="2.9000001"
       id="rect10"
       style="fill:#ffffff" /><polygon
       class="st0"
       points="277,164 275,166 274,160 272,162 270,157 265,163 270,164 268,166 274,167 272,169 273,170 278,165 "
       id="polygon12"
       style="fill:#ffffff" /><polygon
       class="st0"
       points="253,143 254,141 248,139 250,137 249,136 244,142 245,143 247,141 249,147 251,145 252,150 258,144 "
       id="polygon14"
       style="fill:#ffffff" /></g><path
     class="st0"
     d="m 519.5,173.9 c 6.225,-12.645 3.495,-28.05 1.167,-36.15 -0.3885,-1.167 -1.167,-2.145 -2.34,-2.34 -1.167,-0.3885 -2.34,0 -3.3,0.7785 l -25.8,25.8 c -0.972,-2.145 -2.535,-4.08 -4.47,-5.445 -4.665,-3.3 -11.28,-3.3 -15.9,0.195 -3.495,2.535 -5.445,6.615 -5.445,10.695 0,3.69 1.3605,7.005 3.885,9.525 0.3885,0.3885 0.972,0.7785 1.3605,1.167 5.25,4.08 13.035,3.495 17.85,-1.3605 l 23.55,-23.55 c 7.005,7.005 7.2,19.5 7.2,19.8 l 0.7785,2.535 z"
     id="path18"
     inkscape:connector-curvature="0"
     style="fill:#ffffff;stroke-width:1.5" /><path
     class="st0"
     d="m 429.5,166.4 62.85,62.85 c 1.3605,1.3605 1.3605,3.3 0,4.665 l -0.195,0.195 c -1.3605,1.3605 -3.3,1.3605 -4.665,0 l -62.85,-62.85 c -1.3605,-1.3605 -1.3605,-3.3 0,-4.665 l 0.195,-0.195 c 1.3605,-1.3605 3.495,-1.3605 4.665,0 z"
     id="path20"
     inkscape:connector-curvature="0"
     style="fill:#ffffff;stroke-width:1.5" /><g
     transform="matrix(1.95,0,0,1.95,-71.5,-74.983)"
     id="g26"><path
       class="st0"
       d="m 345,104 c -0.3,-8.9 -4,-17.3 -10.3,-23.6 -6.3,-6.3 -14.7,-10 -23.6,-10.3 -0.9,0 -1.7,0.5 -2.1,1.3 -0.4,0.8 -0.2,1.8 0.5,2.4 0.4,0.4 0.9,0.6 1.5,0.6 7.8,0.3 15.2,3.5 20.7,9 5.5,5.5 8.7,12.9 9,20.7 0,0.6 0.2,1.1 0.6,1.5 0.6,0.6 1.6,0.8 2.4,0.5 0.8,-0.4 1.3,-1.2 1.3,-2.1 z"
       id="path22"
       inkscape:connector-curvature="0"
       style="fill:#ffffff" /><path
       class="st0"
       d="m 363,101 c -0.3,-13.2 -5.6,-25.6 -14.9,-35 -9.3,-9.3 -21.7,-14.6 -35,-14.9 -1,0 -1.8,0.5 -2.2,1.4 -0.4,0.9 -0.2,1.9 0.5,2.6 0.4,0.4 1,0.7 1.6,0.7 12,0.3 23.2,5.1 31.7,13.5 8.4,8.4 13.2,19.7 13.5,31.7 0,0.6 0.3,1.2 0.7,1.6 0.7,0.7 1.7,0.9 2.6,0.5 1,-0.3 1.6,-1.1 1.5,-2.1 z"
       id="path24"
       inkscape:connector-curvature="0"
       style="fill:#ffffff" /></g></g><text
   id="text30"
   xml:space="preserve"
   style="font-size:186px;line-height:1.25;font-family:sans-serif;letter-spacing:0px;word-spacing:0px;fill:#ffffff;fill-opacity:0.725;stroke:#ffffff;stroke-width:1.95"
   word-spacing="0px"
   letter-spacing="0px"
   font-size="124px"
   y="364.66275"
   x="175.76273"><tspan
     style="font-size:82.95px;font-family:'TeX Gyre Adventor';fill:#ffffff;fill-opacity:0.725;stroke:#ffffff;stroke-width:1.95"
     id="tspan28"
     font-size="55.3px"
     y="364.66275"
     x="175.76273">Enhanced Music</tspan></text>
<text
   id="text34"
   xml:space="preserve"
   style="font-size:186px;line-height:1.25;font-family:sans-serif;letter-spacing:0px;word-spacing:0px;fill:#ffffff;fill-opacity:0.725;stroke:#ffffff;stroke-width:1.95"
   word-spacing="0px"
   letter-spacing="0px"
   font-size="124px"
   y="456.73557"
   x="238.18275"><tspan
     style="font-size:82.95px;font-family:'TeX Gyre Adventor';fill:#ffffff;fill-opacity:0.725;stroke:#ffffff;stroke-width:1.95"
     id="tspan32"
     font-size="55.3px"
     y="456.73557"
     x="238.18275">Controller Lite</tspan></text>
</svg>
