<svg height="135.89999" viewBox="0 0 135.81082 135.89999" width="135.81082"
        xmlns="http://www.w3.org/2000/svg">
    <g transform="translate(-182.1 -10.000007)">
        <path d="m287.5 69.200007-28.7-28.7c-4-4-10.5-4-14.5 0l-59.2 59.100004c-1.9 1.899989-3 4.499989-3 7.299989 0 2.7 1.1 5.3 3 7.3l28.7 28.7c1.9 1.9 4.5 3 7.3 3 2.7 0 5.3-1.1 7.3-3l59.2-59.199993c3.9-4 3.9-10.5-.1-14.5zm-2.7 11.8-59.2 59.199993c-1.2 1.2-2.8 1.9-4.6 1.9-1.7 0-3.3-.7-4.6-1.9l-28.7-28.7c-1.2-1.2-1.9-2.8-1.9-4.6 0-1.7.7-3.3 1.9-4.6l59.2-59.199993c1.2-1.2 2.8-1.9 4.6-1.9 1.7 0 3.3.7 4.6 1.9l28.7 28.7c2.5 2.6 2.5 6.7 0 9.2z" />
        <g transform="translate(-45.1 -41.399993)">
            <g>
                <path d="m254.3 149.89999h9.6v2.9h-9.6z"
                        transform="matrix(.7071 -.7071 .7071 .7071 -31.1273 227.5646)" />
                <path d="m258.29999 153.89999h9.6v2.9h-9.6z"
                        transform="matrix(.7071 -.7071 .7071 .7071 -32.7709 231.5325)" />
            </g>
            <path d="m273.5 160.1-1.8 1.8-1.3-4.9-5.7 5.6 4.9 1.3-1.8 1.8 6 1.6-2 2 1.1 1.1 5.3-5.3-1.1-1-2 2z" />
            <path d="m248.4 139.4 2-2-1.1-1.1-5.2 5.2 1.1 1.1 1.9-2 1.7 6 1.8-1.8 1.3 4.9 5.6-5.6-4.9-1.3 1.8-1.8z" />
        </g>
        <path d="m258.7 86.400007c3.2-6.5 1.8-14.4.6-18.6-.2-.6-.6-1.1-1.2-1.2-.6-.2-1.2 0-1.7.4l-13.3 13.3c-.5-1.1-1.3-2.1-2.3-2.8-2.4-1.7-5.8-1.7-8.2.1-1.8 1.3-2.8 3.4-2.8 5.5 0 1.9.7 3.6 2 4.9.2.2.5.4.7.6 2.7 2.100004 6.7 1.800004 9.2-.7l12.1-12.1c3.6 3.6 3.7 10 3.7 10.2l.4 1.3z" />
        <path d="m212.7 82.900007 32.3 32.299993c.7.7.7 1.7 0 2.4l-.1.1c-.7.7-1.7.7-2.4 0l-32.3-32.299993c-.7-.7-.7-1.7 0-2.4l.1-.1c.7-.7 1.8-.7 2.4 0z" />
        <g transform="translate(-45.1 -41.399993)">
            <path d="m344.9 103.5c-.3-8.9-4-17.3-10.3-23.6s-14.7-10-23.6-10.3c-.9 0-1.7.5-2.1 1.3s-.2 1.8.5 2.4c.4.4.9.6 1.5.6 7.8.3 15.2 3.5 20.7 9s8.7 12.9 9 20.7c0 .6.2 1.1.6 1.5.6.6 1.6.8 2.4.5.8-.4 1.3-1.2 1.3-2.1z" />
            <path d="m363 101.3c-.3-13.2-5.6-25.6-14.9-35-9.3-9.3-21.7-14.6-35-14.9-1 0-1.8.5-2.2 1.4s-.2 1.9.5 2.6c.4.4 1 .7 1.6.7 12 .3 23.2 5.1 31.7 13.5 8.4 8.4 13.2 19.7 13.5 31.7 0 .6.3 1.2.7 1.6.7.7 1.7.9 2.6.5 1-.3 1.6-1.1 1.5-2.1z" />
        </g>
    </g>
</svg>