<?xml version="1.0" encoding="UTF-8" standalone="no"?>
<svg
   xmlns:dc="http://purl.org/dc/elements/1.1/"
   xmlns:cc="http://creativecommons.org/ns#"
   xmlns:rdf="http://www.w3.org/1999/02/22-rdf-syntax-ns#"
   xmlns:svg="http://www.w3.org/2000/svg"
   xmlns="http://www.w3.org/2000/svg"
   width="265"
   height="265"
   version="1.1"
   viewBox="0 0 265 265"
   id="svg1023">
  <metadata
     id="metadata1029">
    <rdf:RDF>
      <cc:Work
         rdf:about="">
        <dc:format>image/svg+xml</dc:format>
        <dc:type
           rdf:resource="http://purl.org/dc/dcmitype/StillImage" />
        <dc:title></dc:title>
      </cc:Work>
    </rdf:RDF>
  </metadata>
  <defs
     id="defs1027" />
  <path
     d="m91.5 67.8c-42.3 0-63.9 34.4-48.5 76.6s62 76.6 104 76.6c42.3 0 63.9-34.4 48.5-76.6s-62-76.6-104-76.6zm1.7 4.6c39.4 0 83.2 32.1 97.7 72s-5.9 72-45.3 72-83.2-32.1-97.7-72 5.9-72 45.3-72z"
     fill-opacity=".6"
     id="path1007"
     style="fill:#000000;fill-opacity:0.60000002" />
  <path
     d="m 107.03496,202.71928 c -19.410277,-9.77532 -42.577121,-31.37893 -49.808477,-49.02416 44.499997,-21 69.008477,15.02416 49.808477,49.02416 z"
     id="path1009"
     style="fill:#000000;fill-opacity:0.6" />
  <path
     d="m 38.242162,168.93008 c 10.1,22.3 31.665042,40.27352 54.765042,52.47352 -6.3,5.1 -24.81928,24.58432 -39.41928,24.58432 -14.6,0 -36.657839,-20.6892 -36.657839,-35.8892 0,-15.2 17.512077,-34.86864 21.312077,-41.16864 z"
     id="path1011"
     style="fill:#000000;fill-opacity:0.6" />
  <path
     d="m140 229c21.1 0 36.2-4.3 48.1-18.2-13.9 12.7-29.4 14.1-49.1 14.1-39.4 0-84.3-33.3-98.8-73.2-7.22-19.9-10.5-41.1-2.2-54.1-8.8 13.9-11.7 27-2.53 55.6 12.7 39.5 61.9 75.8 105 75.8z"
     fill-opacity=".6"
     id="path1013"
     style="fill:#000000;fill-opacity:0.60000002" />
  <path
     d="m221 82.6v46c-2.1-1-4.3-1.5-6.6-1.5-8.5 0-15.5 6.9-15.5 15.5s6.9 15.5 15.5 15.5c8.3 0 15.1-6.6 15.5-14.9 0-13.1 0-26.3-0.1-39.5 9.5-0.8 16.1 5.8 23.5 10.1-6.5-11.5-14.3-24.9-32.3-31.2z"
     fill-opacity=".8"
     id="path1015"
     style="stroke:none;fill:#000000;fill-opacity:0.80000001" />
  <path
     d="m154 23.6v26.8c-1.2-0.6-2.5-0.9-3.8-0.9-5 0-9 4-9 9s4 9 9 9c4.8 0 8.8-3.8 9-8.7v-23c5.6-0.5 9.4 3.4 13.7 5.9-3.8-6.7-8.3-14.5-18.8-18.2z"
     fill-opacity=".9"
     id="path1017"
     style="fill:#000000;fill-opacity:0.80000001" />
  <path
     d="m145 104v19.4c-0.9-0.4-1.8-0.6-2.8-0.6-3.6 0-6.5 2.9-6.5 6.5s2.9 6.5 6.5 6.5c3.5 0 6.4-2.8 6.5-6.3v-16.7c4-0.3 6.8 2.5 9.9 4.3-2.7-4.8-6-10.5-13.6-13.2z"
     fill-opacity=".7"
     id="path1019"
     style="fill:#000000;fill-opacity:0.69999999" />
  <path
     d="m192 55.1v13c-0.6-0.3-1.2-0.4-1.9-0.4-2.4 0-4.4 2-4.4 4.4s2 4.4 4.4 4.4c2.3 0 4.3-1.8 4.4-4.2v-11.1c2.7-0.2 4.5 1.6 6.6 2.9-1.8-3.2-4-7-9.1-8.8z"
     fill-opacity=".7"
     id="path1021"
     style="fill:#000000;fill-opacity:0.60000002" />
</svg>
